<svg width="72" height="72" viewBox="0 0 72 72" fill="none" xmlns="http://www.w3.org/2000/svg">
<g clip-path="url(#clip0_798_15164)">
<g opacity="0.5">
<path d="M6.99265 15.3064C7.74931 17.0892 10.6687 16.6417 10.9082 14.6782C10.9742 14.1375 10.6139 13.4018 9.82448 13.1933C9.02363 12.9817 8.19156 13.2487 7.19052 13.9379C7.19052 13.9379 6.27866 11.6764 6.02367 10.9051C5.82978 10.3186 5.82472 10.2548 6.22742 9.60745C6.71686 8.8206 7.85285 7.52298 8.74151 7.04963C9.25293 6.77722 9.40846 7.04949 9.54716 7.29495L11.9831 11.7485C12.7397 13.5313 15.6591 13.0838 15.8986 11.1203C15.9646 10.5796 15.6043 9.84393 14.8149 9.63535C14.014 9.42374 13.2273 9.66163 12.2262 10.3509C12.2262 10.3509 9.99521 5.1791 9.93262 5.03955C9.58776 4.27066 9.17136 4.3931 8.47602 4.8053C7.55608 5.35065 5.22672 7.20428 4.47875 7.93533C4.14088 8.26556 3.83358 8.68432 4.03907 9.19306C4.17281 9.52415 6.99265 15.3064 6.99265 15.3064Z" fill="#B571FF"/>
</g>
<path d="M9.07497 16.0187C9.19525 16.0186 9.31538 16.01 9.43447 15.9931C9.90976 15.9262 10.358 15.7229 10.6967 15.4209C11.0714 15.0895 11.3104 14.6313 11.3678 14.1344C11.4454 13.498 11.0187 12.7058 10.1703 12.4817C9.38786 12.2749 8.57985 12.4783 7.5691 13.1411C7.3498 12.5938 6.68568 10.9267 6.4766 10.2942C6.29687 9.75059 6.28987 9.72937 6.66486 9.12649C7.13096 8.37717 8.24363 7.09042 9.12047 6.62335C9.50044 6.421 9.58273 6.56683 9.71926 6.8084L12.1505 11.2535C12.4753 12.0108 13.2047 12.4607 14.0654 12.4608C14.1857 12.4607 14.3058 12.4521 14.4249 12.4352C14.9002 12.3682 15.3484 12.165 15.6871 11.863C16.0618 11.5316 16.3008 11.0734 16.3582 10.5765C16.4358 9.94013 16.0091 9.14791 15.1607 8.92374C14.3687 8.71447 13.5954 8.90371 12.6007 9.55672C12.2079 8.64619 10.4364 4.54017 10.3798 4.41395C10.2224 4.06296 10.0416 3.86542 9.81099 3.79228C9.50126 3.6941 9.15764 3.84106 8.70377 4.11013C7.77954 4.65802 5.44531 6.51196 4.67735 7.26254C4.35391 7.57865 3.9528 8.07037 4.20244 8.68839C4.33606 9.01918 7.02074 14.5252 7.15868 14.808C7.48274 15.5674 8.21304 16.0187 9.07497 16.0187ZM9.58325 12.7137C9.75482 12.7137 9.92567 12.7359 10.0915 12.78C10.847 12.9796 11.1135 13.6704 11.0615 14.0971C10.9373 15.1148 10.0842 15.59 9.3914 15.6876C8.7279 15.7811 7.81904 15.5742 7.44111 14.6837C7.44005 14.6812 7.43892 14.6788 7.43774 14.6763C6.46324 12.6781 4.59275 8.83076 4.48856 8.57283C4.34763 8.22392 4.4686 7.89806 4.89301 7.48322C5.63935 6.75378 7.97669 4.89987 8.86112 4.37556C9.23099 4.15629 9.51812 4.02313 9.71775 4.08643C9.85657 4.13045 9.98105 4.2789 10.0983 4.54025C10.1597 4.67721 12.3687 9.79785 12.391 9.84955C12.4 9.87049 12.4136 9.88917 12.4307 9.90424C12.4478 9.91931 12.4681 9.9304 12.49 9.93671C12.5119 9.94301 12.5349 9.94439 12.5574 9.94072C12.58 9.93706 12.6014 9.92846 12.6202 9.91552C13.6089 9.23476 14.3452 9.02745 15.0819 9.22207C15.8374 9.4217 16.1039 10.1124 16.0519 10.5392C15.9277 11.5569 15.0746 12.032 14.3818 12.1297C13.7183 12.2231 12.8095 12.0164 12.4315 11.1258C12.4295 11.1211 12.4273 11.1165 12.4248 11.112L9.98893 6.65846C9.85067 6.4137 9.62102 6.00715 8.9754 6.35102C8.05082 6.84349 6.88727 8.18468 6.40284 8.96352C5.98529 9.63481 5.96889 9.74155 6.18359 10.3911C6.43722 11.1583 7.31655 13.3407 7.35387 13.4332C7.36251 13.4546 7.37587 13.4738 7.39294 13.4894C7.41001 13.505 7.43037 13.5166 7.4525 13.5232C7.47464 13.5299 7.49799 13.5315 7.52083 13.5279C7.54366 13.5243 7.56541 13.5157 7.58444 13.5026C8.36019 12.9684 8.99783 12.7137 9.58325 12.7137Z" fill="#241F3F"/>
<g opacity="0.5">
<path d="M61.3303 30.6374C63.8393 29.9545 66.3339 31.5971 66.9119 33.7019C67.4582 35.6921 66.2917 37.1863 65.1758 38.3885C64.7333 38.865 64.5563 39.3136 64.6452 39.8097C64.6455 39.8108 64.6456 39.8119 64.6459 39.813L64.6546 39.845C64.8246 39.8761 64.9452 39.9325 65.0081 40.0137C65.2916 40.0283 65.5678 40.6799 65.5545 41.0499L65.5545 41.0499L65.5557 41.0495C65.7729 41.0321 66.098 41.8465 65.7568 42.4286C65.6314 42.6429 65.4242 42.8138 65.149 42.9579C65.148 42.9584 65.1469 42.9589 65.1459 42.9594C65.1976 43.3183 65.019 43.7563 64.3261 43.9087L64.3258 43.9086C63.6321 44.0613 63.2863 43.7379 63.1833 43.39L63.1831 43.39C62.8736 43.363 62.61 43.3076 62.4062 43.1659C61.8524 42.7805 61.8057 41.9048 62.0102 41.8295L62.0111 41.8294L62.0111 41.8293C61.8428 41.4974 61.821 40.7823 62.0779 40.6569C62.1015 40.5566 62.1883 40.4547 62.331 40.3548C62.3292 40.3475 62.3239 40.327 62.3229 40.3225C62.1948 39.8416 61.847 39.5035 61.2527 39.2606C59.7411 38.6425 58.1486 37.9602 57.7324 35.7427C57.3296 33.5975 58.5674 31.3893 61.3303 30.6374Z" fill="#B571FF"/>
</g>
<path d="M58.5993 32.0869C59.2625 31.0839 60.3255 30.3598 61.6735 29.9929C62.8916 29.6613 64.1819 29.8398 65.3067 30.4953C66.3694 31.1147 67.1486 32.0879 67.4444 33.1654C67.7014 34.1017 67.6184 34.9997 67.1906 35.9107C66.8121 36.7167 66.2108 37.4181 65.6726 37.9979C65.2745 38.4266 65.1179 38.8068 65.1709 39.2213C65.2986 39.2561 65.3986 39.3077 65.4698 39.3753C65.8111 39.4646 66.0534 40.0587 66.0885 40.4414C66.1557 40.4858 66.2117 40.5452 66.252 40.6149C66.4199 40.8825 66.5743 41.4981 66.2737 42.011C66.1515 42.2197 65.9603 42.3969 65.6913 42.551C65.7018 42.9477 65.4652 43.4049 64.743 43.5638C64.741 43.5642 64.739 43.5646 64.737 43.5649C64.6193 43.5914 64.4991 43.6051 64.3785 43.6059C63.8779 43.6059 63.5823 43.338 63.4551 43.0382C63.1172 43.0003 62.8881 42.9265 62.7018 42.7969C62.2137 42.4572 62.0956 41.8335 62.1358 41.5202C62.1432 41.4405 62.1688 41.3635 62.2109 41.2953C62.102 40.999 62.0808 40.5759 62.1702 40.3095C62.1984 40.2126 62.2549 40.1263 62.3323 40.0617C62.3786 39.9593 62.4491 39.8697 62.5376 39.8006C62.41 39.4076 62.1034 39.1226 61.5781 38.9078H61.5781C60.8588 38.6137 60.0435 38.2804 59.3676 37.725C58.6171 37.1085 58.1581 36.3073 57.9645 35.2755C57.7543 34.1562 57.9798 33.0238 58.5993 32.0869ZM63.3774 35.2269C63.2058 35.2725 63.0299 35.3007 62.8526 35.3108C62.5774 35.3274 62.3012 35.3082 62.031 35.2537C61.9742 35.4696 61.9053 35.682 61.8246 35.8901C61.7586 36.0692 61.7014 36.2244 61.6849 36.339C61.7086 36.4353 61.9655 36.7393 62.1926 37.008C62.8943 37.8383 63.9408 39.0769 63.9314 40.3085C63.9618 40.3026 63.9923 40.2963 64.0228 40.2896C64.0444 40.2849 64.0658 40.2798 64.0872 40.2747C63.551 38.5367 63.2943 36.6142 63.3774 35.2269ZM61.8087 34.5832C61.8075 34.1744 61.5201 33.8238 61.2628 33.7648C61.2413 33.7597 61.2193 33.757 61.1972 33.7569C61.1052 33.7569 61.0349 33.8088 60.9834 33.9142C60.9168 34.0508 60.9352 34.1987 61.0381 34.3536C61.1666 34.5471 61.428 34.7417 61.7904 34.8677C61.8027 34.7733 61.8088 34.6783 61.8087 34.5832ZM65.6377 39.9705C65.608 39.908 65.5724 39.8485 65.5313 39.7929C65.53 39.7957 65.5285 39.7986 65.5271 39.8015C65.525 39.8063 65.5227 39.8111 65.5203 39.8159C65.5173 39.822 65.514 39.8282 65.5106 39.8344C65.5079 39.8394 65.5052 39.8443 65.5022 39.8494C65.4985 39.8556 65.4946 39.862 65.4905 39.8683C65.4873 39.8734 65.4841 39.8785 65.4806 39.8836C65.4762 39.8901 65.4713 39.8967 65.4665 39.9033C65.4628 39.9084 65.4591 39.9135 65.4551 39.9186C65.4498 39.9255 65.444 39.9325 65.4382 39.9394C65.434 39.9444 65.43 39.9494 65.4256 39.9544C65.419 39.9619 65.4119 39.9696 65.4047 39.9772C65.4004 39.9818 65.3964 39.9863 65.3918 39.9909C65.3875 39.9954 65.3826 39.9999 65.3781 40.0044C65.369 40.0342 65.3512 40.0605 65.3269 40.08C65.0565 40.2966 64.6067 40.4863 64.0929 40.6006C63.8128 40.6648 63.5267 40.6987 63.2394 40.7018C63.0768 40.704 62.9145 40.687 62.7558 40.651C62.7237 40.6431 62.6949 40.625 62.6739 40.5994C62.6683 40.5974 62.6625 40.5955 62.6571 40.5935C62.6506 40.591 62.6447 40.5885 62.6385 40.586C62.629 40.5822 62.6195 40.5784 62.6106 40.5745C62.6044 40.5718 62.5987 40.5689 62.5927 40.5661C62.5844 40.5622 62.5762 40.5583 62.5684 40.5543C62.5627 40.5514 62.5573 40.5484 62.5518 40.5453C62.5445 40.5413 62.5371 40.5372 62.5302 40.5331C62.525 40.53 62.5201 40.5269 62.5152 40.5237C62.5086 40.5195 62.502 40.5153 62.4958 40.5109C62.4912 40.5078 62.4869 40.5046 62.4826 40.5014C62.4765 40.497 62.4706 40.4925 62.465 40.488C62.4611 40.4849 62.4573 40.4817 62.4536 40.4785C62.4509 40.4762 62.4479 40.474 62.4453 40.4717C62.3949 40.7026 62.4318 41.0647 62.5321 41.2632L62.5324 41.2637C62.5392 41.2773 62.5467 41.2904 62.5549 41.3032C62.5628 41.3157 62.5719 41.3274 62.5822 41.338C62.7532 41.5116 63.3071 41.7474 64.2985 41.5297C64.3222 41.5244 64.3453 41.519 64.3684 41.5135C64.931 41.3799 65.3085 41.1704 65.5329 40.9639C65.5343 40.9626 65.5359 40.9612 65.5374 40.9599C65.5389 40.9584 65.5404 40.9569 65.5419 40.9555C65.6612 40.8436 65.7358 40.7329 65.7707 40.6359C65.7709 40.6353 65.7712 40.6344 65.7714 40.6336C65.7727 40.6299 65.7739 40.6258 65.775 40.6215C65.7754 40.6199 65.7758 40.6184 65.7762 40.6166C65.7773 40.612 65.7782 40.607 65.7791 40.6019C65.7794 40.5998 65.7798 40.5977 65.7801 40.5954C65.7809 40.5901 65.7815 40.5846 65.7821 40.5789C65.7824 40.5759 65.7827 40.5727 65.7829 40.5695C65.7832 40.5654 65.7834 40.5611 65.7836 40.5569C65.7838 40.5542 65.7839 40.5516 65.784 40.5487C65.7896 40.394 65.7308 40.1616 65.6377 39.9705ZM64.6763 43.2624C64.6782 43.2619 64.6801 43.2615 64.682 43.2612C65.1695 43.1525 65.3263 42.9067 65.3689 42.7084C65.1299 42.8083 64.8825 42.887 64.6297 42.9436C64.3618 43.0018 64.0896 43.0375 63.8158 43.0503C63.9382 43.2129 64.1848 43.3705 64.6763 43.2624ZM62.4481 41.7933C62.4653 41.9111 62.5473 42.3134 62.878 42.5436C63.0186 42.6414 63.2026 42.6988 63.4816 42.7307C63.5045 42.7174 63.5304 42.7102 63.5568 42.7098C63.8057 42.707 64.1042 42.6645 64.5246 42.5721C64.5262 42.5717 64.5279 42.5714 64.5296 42.5711C64.9406 42.4806 65.2368 42.3916 65.4615 42.2911C65.4878 42.2794 65.5168 42.2753 65.5453 42.2792C65.7624 42.1537 65.9142 42.0144 66.0074 41.855C66.2112 41.5074 66.1169 41.108 66.0831 40.9938C66.0671 40.9385 66.0464 40.8848 66.021 40.8332C66.0191 40.8371 66.0168 40.8411 66.0148 40.845C66.0132 40.8481 66.0115 40.8511 66.0099 40.8542C66.0052 40.8629 66.0003 40.8717 65.9953 40.8805C65.9932 40.8841 65.9911 40.8876 65.989 40.8912C65.984 40.8996 65.9789 40.9079 65.9736 40.9163C65.9711 40.9203 65.9686 40.9242 65.966 40.9282C65.9608 40.9363 65.9553 40.9444 65.9497 40.9525C65.9468 40.9567 65.9439 40.961 65.9409 40.9652C65.9353 40.9732 65.9294 40.9811 65.9235 40.9891C65.9202 40.9935 65.917 40.9979 65.9137 41.0023C65.9076 41.0102 65.9013 41.0181 65.8949 41.026C65.8913 41.0305 65.8879 41.0349 65.8842 41.0394C65.8772 41.0479 65.8698 41.0564 65.8624 41.0649C65.8546 41.0739 65.8465 41.083 65.8382 41.092C65.8322 41.0986 65.8263 41.1052 65.8201 41.1118C65.8135 41.1188 65.8066 41.1257 65.7998 41.1326C65.7947 41.1378 65.7897 41.143 65.7844 41.1482C65.7772 41.1554 65.7696 41.1626 65.762 41.1698C65.7569 41.1747 65.7518 41.1796 65.7466 41.1845C65.7387 41.1918 65.7306 41.1991 65.7224 41.2064C65.7171 41.2111 65.7118 41.2159 65.7064 41.2206C65.6979 41.228 65.6892 41.2354 65.6805 41.2427C65.675 41.2473 65.6696 41.2519 65.664 41.2565C65.6549 41.2639 65.6456 41.2714 65.6362 41.2788C65.6306 41.2832 65.625 41.2876 65.6193 41.292C65.6096 41.2995 65.5997 41.307 65.5896 41.3145C65.584 41.3187 65.5782 41.3229 65.5725 41.3271C65.562 41.3347 65.5515 41.3423 65.5407 41.3499C65.535 41.3538 65.5293 41.3577 65.5235 41.3617C65.5122 41.3694 65.5009 41.3772 65.4892 41.3849C65.4839 41.3884 65.4784 41.3918 65.473 41.3953C65.4606 41.4034 65.4482 41.4114 65.4353 41.4194C65.4309 41.4221 65.4263 41.4248 65.4219 41.4275C65.4078 41.4362 65.3936 41.4448 65.379 41.4534C65.378 41.4539 65.3769 41.4545 65.3759 41.4551C65.323 41.4859 65.2669 41.5159 65.2076 41.5452C65.2054 41.5462 65.2033 41.5473 65.2011 41.5484C65.1857 41.5559 65.1698 41.5633 65.1539 41.5708C65.1474 41.5738 65.1411 41.5768 65.1345 41.5798C65.1199 41.5865 65.105 41.5931 65.09 41.5997C65.0817 41.6033 65.0736 41.607 65.0652 41.6105C65.0509 41.6167 65.0363 41.6227 65.0216 41.6288C65.0122 41.6327 65.0027 41.6366 64.9931 41.6404C64.9789 41.6461 64.9644 41.6518 64.9498 41.6574C64.9394 41.6614 64.9289 41.6654 64.9182 41.6694C64.904 41.6748 64.8895 41.68 64.875 41.6853C64.8635 41.6894 64.852 41.6934 64.8404 41.6975C64.8261 41.7025 64.8117 41.7074 64.7972 41.7123C64.7847 41.7164 64.7721 41.7205 64.7595 41.7246C64.7453 41.7292 64.731 41.7338 64.7165 41.7383C64.7029 41.7425 64.689 41.7466 64.6752 41.7508C64.6611 41.7549 64.6472 41.7591 64.6329 41.7632C64.6177 41.7676 64.6022 41.7718 64.5867 41.7761C64.5733 41.7797 64.5601 41.7835 64.5465 41.787C64.528 41.7919 64.5091 41.7966 64.4903 41.8013C64.4793 41.8041 64.4685 41.8069 64.4573 41.8096C64.4269 41.817 64.396 41.8241 64.3647 41.831C64.3296 41.8388 64.295 41.8458 64.2606 41.8526C64.2513 41.8544 64.242 41.8561 64.2327 41.8578C64.2075 41.8626 64.1824 41.8671 64.1576 41.8714C64.1475 41.8731 64.1375 41.8748 64.1275 41.8765C64.1018 41.8807 64.0764 41.8846 64.0512 41.8883C64.0437 41.8893 64.0362 41.8905 64.0288 41.8916C63.996 41.8961 63.9637 41.9003 63.9317 41.9039C63.9295 41.9042 63.9274 41.9044 63.9252 41.9046C63.8961 41.9079 63.8673 41.9108 63.839 41.9133C63.8305 41.914 63.822 41.9147 63.8136 41.9154C63.791 41.9172 63.7687 41.9188 63.7466 41.9202C63.7379 41.9207 63.7293 41.9213 63.7207 41.9218C63.6965 41.9231 63.6727 41.9241 63.6492 41.9249C63.6439 41.9251 63.6385 41.9254 63.6333 41.9255C63.6043 41.9263 63.5757 41.9267 63.5476 41.9268C63.5467 41.9268 63.5457 41.9268 63.5447 41.9268C63.5422 41.9268 63.5398 41.9267 63.5373 41.9267C63.5071 41.9266 63.4773 41.9261 63.4481 41.9251C63.4419 41.9249 63.4357 41.9247 63.4296 41.9244C63.3984 41.9232 63.3678 41.9215 63.3378 41.9193C63.3331 41.919 63.3284 41.9186 63.3237 41.9182C63.2969 41.9161 63.2706 41.9136 63.2448 41.9107C63.2396 41.9102 63.2344 41.9097 63.2293 41.9091C63.2009 41.9057 63.1731 41.902 63.1458 41.8978C63.1406 41.897 63.1354 41.8961 63.1302 41.8953C63.1058 41.8914 63.0819 41.8872 63.0584 41.8826C63.0547 41.8819 63.0508 41.8812 63.047 41.8804C63.0212 41.8753 62.9961 41.8697 62.9715 41.8637C62.9662 41.8625 62.9611 41.8612 62.9559 41.8599C62.9331 41.8542 62.9107 41.8482 62.889 41.842C62.8869 41.8414 62.8847 41.8408 62.8827 41.8402C62.8594 41.8334 62.8368 41.8261 62.8147 41.8186C62.8099 41.817 62.8051 41.8153 62.8003 41.8137C62.7563 41.7983 62.7147 41.7817 62.6755 41.764C62.6714 41.7621 62.6673 41.7602 62.6633 41.7584C62.644 41.7494 62.6251 41.7402 62.607 41.7308C62.6062 41.7303 62.6055 41.7299 62.6046 41.7295C62.5872 41.7203 62.5704 41.7108 62.5541 41.7012C62.5509 41.6993 62.5477 41.6975 62.5446 41.6956C62.5279 41.6855 62.5117 41.6753 62.4963 41.6648C62.495 41.6639 62.4937 41.663 62.4924 41.6621C62.4777 41.6521 62.4638 41.6419 62.4503 41.6316C62.4483 41.6301 62.4462 41.6286 62.4442 41.627C62.4419 41.6252 62.4394 41.6234 62.4371 41.6216C62.4357 41.679 62.4394 41.7365 62.4481 41.7933ZM58.2678 35.2186C58.6748 37.3873 60.2793 38.0434 61.6948 38.6222C62.337 38.8847 62.7168 39.2658 62.8557 39.7871C62.8562 39.789 62.8569 39.7919 62.8573 39.7937L62.8588 39.7994C62.859 39.8002 62.8593 39.8013 62.8595 39.8021C62.8596 39.8024 62.8605 39.8058 62.8619 39.8118C62.8634 39.8164 62.8649 39.8209 62.866 39.8257L62.8675 39.8314C62.8677 39.8322 62.868 39.8333 62.8682 39.8341C62.911 40.0049 62.9418 40.1786 62.9605 40.3537C63.1442 40.3836 63.3737 40.384 63.6218 40.3562C63.6598 39.2225 62.5974 37.965 61.9569 37.2072C61.5281 36.6997 61.3549 36.4867 61.3775 36.3092C61.3966 36.1589 61.4608 35.9849 61.5351 35.7834C61.6124 35.5843 61.6782 35.381 61.7323 35.1744C61.2797 35.0258 60.9501 34.7788 60.781 34.5243C60.618 34.2788 60.5914 34.0141 60.7061 33.7789C60.832 33.5208 61.066 33.403 61.3318 33.464C61.7082 33.5504 62.1156 34.0025 62.1173 34.5823C62.1174 34.7055 62.1086 34.8285 62.0908 34.9503C62.3357 35.0001 62.586 35.0177 62.8354 35.0027C63.0287 34.9915 63.2198 34.9565 63.4046 34.8987C63.4417 34.5522 63.5035 34.2481 63.5911 34.0004C63.8983 33.1316 64.4631 32.7753 64.8582 32.8118C65.1089 32.835 65.2899 33.0117 65.3307 33.2728C65.3717 33.535 65.2444 33.8647 64.9723 34.2011C64.7073 34.5289 64.255 34.9029 63.6932 35.1233C63.6576 35.5851 63.6628 36.1264 63.7106 36.7217C63.8109 37.8991 64.037 39.0623 64.3847 40.1917C64.6375 40.11 64.8595 40.0079 65.0213 39.8974C64.9981 39.834 64.977 39.7637 64.9587 39.6957C64.9129 39.5311 64.8828 39.3717 64.8784 39.3478C64.8782 39.3468 64.878 39.3458 64.8778 39.3448C64.8775 39.3436 64.8773 39.3425 64.8771 39.3414C64.7807 38.8036 64.9616 38.31 65.4464 37.7879C66.5468 36.6026 67.6764 35.1764 67.1469 33.2471C66.6122 31.3001 64.2661 29.607 61.7545 30.2906C58.8549 31.0798 57.914 33.3343 58.2678 35.2186ZM63.73 34.7734C64.1662 34.5722 64.5176 34.2727 64.7324 34.0071C64.9427 33.7471 65.0524 33.4904 65.0258 33.3204C65.0066 33.1971 64.9406 33.1293 64.8297 33.1191C64.8212 33.1183 64.8124 33.1179 64.8032 33.1179C64.5709 33.1179 64.1393 33.3758 63.882 34.1033C63.8091 34.321 63.7582 34.5455 63.73 34.7734Z" fill="#241F3F"/>
<g opacity="0.5">
<path d="M41.5756 21.7043C35.8999 14.5555 39.2969 10.9707 41.7252 11.0501C43.7961 11.1179 45.2711 12.6658 45.2574 14.9059C47.1259 13.6703 49.2284 14.0598 50.4167 15.7571C51.8101 17.7474 50.6642 22.5513 41.5756 21.7043Z" fill="#B571FF"/>
</g>
<path d="M44.28 21.5496C45.8615 21.5496 47.2285 21.3497 48.3614 20.9517C49.6979 20.4821 50.6984 19.728 51.2546 18.771C51.5919 18.1988 51.7604 17.5429 51.7406 16.8789C51.7195 16.2832 51.5351 15.7084 51.2214 15.2603C50.0202 13.5448 47.9384 13.1378 46.0842 14.2234C45.9802 12.0773 44.5017 10.5561 42.4086 10.4877C41.8616 10.47 41.2797 10.6294 40.7693 10.9372C40.2024 11.2835 39.7451 11.783 39.4502 12.3782C38.9527 13.3669 38.8678 14.6169 39.2049 15.9929C39.6071 17.6347 40.5922 19.4513 42.133 21.392C42.146 21.4083 42.1621 21.4218 42.1804 21.4317C42.1987 21.4417 42.2188 21.4478 42.2396 21.4497C42.9543 21.5163 43.6344 21.5496 44.28 21.5496ZM48.1863 13.935C49.2659 13.935 50.277 14.4495 50.9686 15.4373C51.4763 16.1624 51.6791 17.4265 50.9878 18.616C50.469 19.5086 49.5254 20.2156 48.2591 20.6606C46.7205 21.2012 44.7273 21.3653 42.3338 21.1485C40.8443 19.2623 39.8926 17.5034 39.5046 15.9195C39.1853 14.6157 39.2618 13.4392 39.7259 12.517C40.3443 11.288 41.514 10.7673 42.3985 10.7961C44.4032 10.8616 45.7943 12.3834 45.7814 14.4967C45.7812 14.5246 45.7886 14.5521 45.8029 14.5762C45.8171 14.6002 45.8376 14.62 45.8622 14.6333C45.8868 14.6466 45.9145 14.653 45.9424 14.6518C45.9704 14.6505 45.9974 14.6417 46.0208 14.6263C46.7238 14.1615 47.4701 13.935 48.1863 13.935Z" fill="#241F3F"/>
<g opacity="0.5">
<path d="M58.5686 12.4947C57.1574 11.0835 57.1574 8.79543 58.5686 7.38421C59.9799 5.97299 62.2679 5.97299 63.6791 7.38421C65.0904 8.79543 65.0904 11.0835 63.6791 12.4947C62.2679 13.9059 59.9799 13.9059 58.5686 12.4947Z" fill="#B571FF"/>
</g>
<path d="M61.7438 5.84375C63.8214 5.84375 65.5117 7.53405 65.5117 9.6117C65.5117 11.6893 63.8214 13.3796 61.7438 13.3796C59.6661 13.3796 57.9758 11.6893 57.9758 9.6117C57.9758 7.53405 59.6661 5.84375 61.7438 5.84375ZM61.7438 13.0711C63.6513 13.0711 65.2031 11.5192 65.2031 9.6117C65.2031 7.70419 63.6513 6.15232 61.7438 6.15232C59.8363 6.15232 58.2844 7.70419 58.2844 9.6117C58.2844 11.5192 59.8363 13.0711 61.7438 13.0711Z" fill="#241F3F"/>
<path d="M59.4491 5.12437C59.4318 5.13488 59.4126 5.14188 59.3926 5.14496C59.3725 5.14804 59.3521 5.14714 59.3324 5.14232C59.3127 5.1375 59.2942 5.12884 59.2779 5.11685C59.2615 5.10486 59.2477 5.08977 59.2372 5.07244L58.0896 3.17971C58.0791 3.16238 58.0721 3.14316 58.069 3.12312C58.0659 3.10308 58.0668 3.08264 58.0716 3.06294C58.0764 3.04325 58.0851 3.0247 58.097 3.00835C58.109 2.99201 58.1241 2.97818 58.1415 2.96767C58.1588 2.95716 58.178 2.95017 58.1981 2.94709C58.2181 2.94402 58.2386 2.94493 58.2582 2.94976C58.2779 2.9546 58.2965 2.96327 58.3128 2.97527C58.3291 2.98727 58.343 3.00238 58.3535 3.01973L59.5011 4.91245C59.5116 4.92977 59.5186 4.949 59.5216 4.96902C59.5247 4.98905 59.5238 5.00949 59.519 5.02916C59.5142 5.04884 59.5055 5.06738 59.4935 5.08371C59.4816 5.10005 59.4665 5.11386 59.4491 5.12437Z" fill="#241F3F"/>
<path d="M64.3818 5.12629C64.3642 5.1632 64.3326 5.19161 64.2941 5.20527C64.2556 5.21894 64.2132 5.21675 64.1762 5.19919C64.1393 5.18162 64.1109 5.15011 64.0972 5.11158C64.0835 5.07306 64.0856 5.03067 64.1031 4.99372L65.0619 2.97846C65.0796 2.94156 65.1111 2.91316 65.1496 2.89949C65.1882 2.88583 65.2305 2.88802 65.2675 2.90559C65.3044 2.92315 65.3328 2.95465 65.3465 2.99317C65.3602 3.03169 65.3581 3.07408 65.3406 3.11102L64.3818 5.12629Z" fill="#241F3F"/>
<path d="M66.6209 7.97905C66.5827 7.97901 66.5459 7.96479 66.5175 7.93915C66.4892 7.91351 66.4714 7.87827 66.4676 7.84026C66.4637 7.80225 66.4741 7.76416 66.4967 7.73337C66.5194 7.70259 66.5526 7.68129 66.59 7.67361L68.7913 7.2219C68.8111 7.21783 68.8316 7.2177 68.8515 7.22154C68.8714 7.22537 68.8903 7.23308 68.9072 7.24424C68.9414 7.26676 68.9652 7.30194 68.9734 7.34202C68.9816 7.3821 68.9736 7.42381 68.9511 7.45797C68.9285 7.49213 68.8934 7.51594 68.8533 7.52417L66.6521 7.97588C66.6418 7.97799 66.6314 7.97905 66.6209 7.97905Z" fill="#241F3F"/>
<path d="M54.2555 8.47655C54.2567 8.45633 54.262 8.43655 54.2709 8.41835C54.2798 8.40015 54.2922 8.38389 54.3074 8.3705C54.3227 8.3571 54.3404 8.34684 54.3595 8.34029C54.3787 8.33375 54.399 8.33105 54.4192 8.33235L56.6563 8.47426C56.6962 8.47679 56.7337 8.49478 56.7606 8.52441C56.7876 8.55405 56.802 8.593 56.8007 8.63304C56.7995 8.67308 56.7827 8.71107 56.7539 8.73896C56.7252 8.76686 56.6867 8.78248 56.6466 8.78251C56.6434 8.78251 56.64 8.78241 56.6367 8.7822L54.3997 8.64029C54.3795 8.63901 54.3597 8.63376 54.3415 8.62484C54.3233 8.61592 54.3071 8.6035 54.2937 8.58829C54.2803 8.57309 54.27 8.55539 54.2635 8.53622C54.2569 8.51705 54.2542 8.49677 54.2555 8.47655Z" fill="#241F3F"/>
<path d="M66.251 12.2134L68.0343 13.5176C68.0507 13.5295 68.0646 13.5446 68.0751 13.5619C68.0857 13.5792 68.0927 13.5985 68.0958 13.6185C68.0989 13.6385 68.0981 13.659 68.0933 13.6787C68.0885 13.6984 68.0799 13.7169 68.0679 13.7333C68.0559 13.7497 68.0409 13.7635 68.0235 13.7741C68.0062 13.7846 67.987 13.7916 67.9669 13.7947C67.9469 13.7978 67.9265 13.7969 67.9068 13.7921C67.8871 13.7873 67.8685 13.7787 67.8522 13.7667L66.0689 12.4625C66.0525 12.4506 66.0386 12.4355 66.0281 12.4182C66.0175 12.4009 66.0105 12.3817 66.0074 12.3616C66.0042 12.3416 66.0051 12.3211 66.0099 12.3014C66.0147 12.2817 66.0233 12.2632 66.0353 12.2468C66.0473 12.2304 66.0623 12.2166 66.0797 12.2061C66.097 12.1955 66.1162 12.1885 66.1362 12.1854C66.1563 12.1823 66.1767 12.1832 66.1964 12.188C66.2161 12.1928 66.2347 12.2015 66.251 12.2134Z" fill="#241F3F"/>
<path d="M61.7929 14.6486C61.8132 14.6493 61.8331 14.6541 61.8515 14.6625C61.8699 14.671 61.8865 14.683 61.9002 14.6978C61.914 14.7127 61.9247 14.7301 61.9318 14.7491C61.9388 14.7681 61.9421 14.7883 61.9413 14.8085L61.8574 17.0373C61.8559 17.0772 61.8391 17.1149 61.8103 17.1426C61.7816 17.1703 61.7433 17.1858 61.7034 17.1858C61.7014 17.1858 61.6994 17.1858 61.6975 17.1857C61.6772 17.1849 61.6573 17.1802 61.6389 17.1717C61.6205 17.1633 61.6039 17.1513 61.5902 17.1364C61.5764 17.1216 61.5657 17.1042 61.5586 17.0852C61.5516 17.0662 61.5483 17.046 61.5491 17.0257L61.6329 14.7969C61.6337 14.7767 61.6384 14.7568 61.6469 14.7383C61.6553 14.7199 61.6673 14.7033 61.6822 14.6896C61.697 14.6758 61.7144 14.6651 61.7335 14.658C61.7525 14.651 61.7727 14.6478 61.7929 14.6486Z" fill="#241F3F"/>
<path d="M55.6565 13.8504L57.4967 12.5896C57.5134 12.5781 57.5322 12.57 57.552 12.5658C57.5719 12.5616 57.5923 12.5614 57.6123 12.5651C57.6322 12.5688 57.6512 12.5764 57.6682 12.5875C57.6852 12.5986 57.6998 12.6129 57.7113 12.6296C57.7227 12.6463 57.7308 12.6651 57.735 12.685C57.7391 12.7048 57.7394 12.7253 57.7356 12.7452C57.7319 12.7651 57.7243 12.7841 57.7132 12.8011C57.7021 12.8181 57.6878 12.8327 57.6711 12.8442L55.8309 14.1049C55.8142 14.1165 55.7953 14.1246 55.7755 14.1289C55.7556 14.1331 55.7351 14.1334 55.7151 14.1297C55.6951 14.126 55.6761 14.1184 55.6591 14.1074C55.642 14.0963 55.6274 14.082 55.6159 14.0652C55.6044 14.0484 55.5963 14.0296 55.5922 14.0097C55.588 13.9898 55.5878 13.9693 55.5916 13.9494C55.5953 13.9294 55.603 13.9104 55.6141 13.8934C55.6253 13.8764 55.6397 13.8618 55.6565 13.8504Z" fill="#241F3F"/>
<path d="M58.3468 55.5308C58.5421 52.5358 57.733 51.3084 55.4254 53.2232C53.1178 55.1381 51.8313 57.1709 54.0752 60.3891C55.9409 63.065 57.7325 64.8102 58.0984 67.609C58.5894 71.3651 60.4334 71.0214 61.8573 68.0755C63.2811 65.1296 62.7126 62.0932 61.6363 60.6371C59.967 58.3786 58.1995 57.7894 58.3468 55.5308Z" fill="#241F3F"/>
<path d="M58.7405 48.4239C61.3324 48.4081 59.0551 52.3095 57.7528 51.2464C56.4504 50.1833 57.3389 48.4324 58.7405 48.4239Z" fill="#241F3F"/>
<path d="M0.000105619 45.2913V50.519C0.650425 50.2401 1.35184 49.6456 2.0373 48.6029C4.35716 45.0744 4.67796 40.8293 2.52834 42.433C1.29451 43.3535 0.804716 44.2267 0.000105619 45.2913Z" fill="#241F3F"/>
<path d="M42.4096 25.5429C44.3483 26.851 47.0428 27.3364 47.6465 29.264C48.09 30.68 46.5626 31.6618 43.9573 30.7129C39.075 28.9347 37.6185 23.4589 39.4459 23.292C40.5267 23.1932 41.043 24.6209 42.4096 25.5429Z" fill="#241F3F"/>
<path d="M0.00126648 52.3987V71.9918H10.933C10.9338 71.9948 10.9345 71.998 10.935 72.001C10.9353 72.0013 10.935 72.0008 10.935 72.001L13.3583 72.0015C13.3587 72.0012 13.3591 72.0007 13.3593 72.0003C13.3621 71.9975 13.3646 71.9945 13.3671 71.9918H55.8857C58.2475 67.0926 52.5168 61.4085 50.8432 58.7172C49.0932 55.9021 54.4478 52.823 56.139 48.701C58.3883 43.2178 56.1627 35.7507 45.8992 32.7359C37.5143 30.2727 36.4956 22.5051 34.6867 20.6987C33.6476 19.6608 31.0204 18.3452 27.597 17.548L27.593 17.547C27.3523 17.4912 27.1077 17.4379 26.8592 17.387L26.847 17.3845C26.8151 17.3778 26.7827 17.3716 26.7506 17.3651C24.9028 16.9947 23.0213 16.8179 21.137 16.8374C19.6432 16.8525 18.154 17.0057 16.6884 17.295C13.4962 17.9321 10.0858 19.0772 7.70488 21.4051C5.74321 23.3229 4.57393 25.882 3.97346 28.5239C3.42958 30.9178 3.29099 33.4388 3.75636 35.8569C4.08588 37.5688 4.84438 40.4318 4.93636 42.1873C5.25666 48.2982 1.7563 51.2489 0.00126648 52.3987Z" fill="#241F3F"/>
<g opacity="0.5">
<path d="M55.4254 53.2232C57.733 51.3084 58.5421 52.5358 58.3468 55.5308C58.1995 57.7894 59.967 58.3785 61.6363 60.6371C62.7126 62.0932 63.2811 65.1296 61.8573 68.0755C60.4334 71.0214 58.5894 71.3651 58.0984 67.609C57.7325 64.8102 55.9409 63.065 54.0752 60.3891C51.8313 57.1709 53.1178 55.1381 55.4254 53.2232Z" fill="url(#paint0_linear_798_15164)"/>
<path d="M57.7528 51.2483C56.4504 50.1852 57.3389 48.4344 58.7405 48.4258C61.3324 48.41 59.0551 52.3115 57.7528 51.2483Z" fill="url(#paint1_linear_798_15164)"/>
<path d="M2.52834 42.433C4.67796 40.8293 4.35716 45.0744 2.0373 48.6029C1.35184 49.6456 0.650425 50.2401 0.000105619 50.519V45.2913C0.804716 44.2267 1.29451 43.3535 2.52834 42.433Z" fill="url(#paint2_linear_798_15164)"/>
<path d="M43.9573 30.7129C39.075 28.9347 37.6185 23.4589 39.4459 23.292C40.5267 23.1932 41.043 24.6209 42.4096 25.5429C44.3483 26.851 47.0428 27.3364 47.6465 29.264C48.09 30.6799 46.5626 31.6618 43.9573 30.7129Z" fill="url(#paint3_linear_798_15164)"/>
</g>
<path d="M8.17626 71.9908H10.9344C10.9351 71.9939 10.9359 71.997 10.9364 72.0001L13.3608 71.9993C13.3636 71.9965 13.3659 71.9937 13.3685 71.9908H48.4688C48.1391 71.1855 47.6683 69.8938 47.1879 68.7732C45.3218 64.4188 44.4689 63.3951 43.0392 61.8748C41.61 60.3541 38.588 59.477 35.5016 58.4258H35.5013L15.0381 61.4251L13.7637 61.6118C13.6801 61.6637 13.597 61.7163 13.5143 61.7694C13.2548 61.9358 12.9989 62.1081 12.7465 62.2863C12.7462 62.2865 12.7459 62.2868 12.7457 62.2868C12.5389 62.4328 12.3337 62.5839 12.1301 62.7399L12.1296 62.7404C11.2504 63.4146 10.3869 64.1948 9.47226 65.1622C8.00218 66.7174 7.92915 68.5192 7.87901 69.7748C7.8484 70.5449 8.0603 71.3601 8.17626 71.9908Z" fill="url(#paint4_linear_798_15164)"/>
<path d="M13.5129 61.7696C13.5129 61.7696 19.1188 64.8674 27.9241 62.9306C32.9951 61.8149 35.5 58.4258 35.5 58.4258C35.5 58.4258 28.8773 56.5485 29.6862 51.6269C29.6862 51.6258 29.6864 51.6247 29.6867 51.6237C29.7058 51.5075 29.7292 51.3894 29.7568 51.2696C29.7583 51.2629 29.7598 51.2562 29.7615 51.2498C29.7866 51.1425 29.8129 51.0372 29.8406 50.9339C29.8475 50.9084 29.8544 50.8833 29.8614 50.8581C29.9559 50.5166 30.0702 50.1808 30.2038 49.8526C30.206 49.8469 30.2085 49.8415 30.2107 49.8358C30.3374 49.5264 30.4826 49.2249 30.6456 48.9329C30.7677 48.7144 30.895 48.5102 31.0254 48.32C31.2107 48.0488 31.4134 47.7899 31.6321 47.545C32.4384 46.6419 33.2347 46.1892 33.5489 46.0324L33.5533 46.0301C33.5635 46.0249 33.5734 46.0202 33.5825 46.0158C33.6514 45.9823 33.6893 45.9669 33.6893 45.9669L31.314 44.7281L27.9149 42.9556L27.9006 42.9482L26.7663 42.3565L22.2441 39.998L21.7057 41.2237L20.0586 44.9734C20.1019 45.07 20.1431 45.1678 20.1822 45.2668C20.3081 45.5854 20.4119 45.9123 20.4929 46.2452C21.7288 51.2738 18.266 58.2503 13.5129 61.7696Z" fill="#FFD0C0"/>
<path opacity="0.7" d="M13.513 61.7696C13.513 61.7696 13.7779 61.9159 14.2829 62.1252C16.1014 62.8784 21.0331 64.4464 27.9243 62.9308C32.9952 61.8151 35.5 58.4259 35.5 58.4259C35.5 58.4259 28.8773 56.5485 29.6863 51.6271C29.6863 51.6259 29.6865 51.6248 29.6868 51.6237C29.7058 51.5075 29.7292 51.3895 29.757 51.2696C29.7585 51.263 29.7598 51.2563 29.7616 51.2498C29.7865 51.1426 29.8129 51.0374 29.8408 50.9341C29.8475 50.9084 29.8544 50.8834 29.8614 50.8582C29.956 50.5167 30.0704 50.181 30.2039 49.8528C30.2062 49.8471 30.2085 49.8415 30.2108 49.8358C30.3375 49.5264 30.4827 49.2249 30.6457 48.933C30.7678 48.7144 30.8951 48.5102 31.0255 48.32C31.2109 48.0489 31.4136 47.79 31.6323 47.5449C32.4385 46.6419 33.2348 46.1893 33.5491 46.0324C33.5501 46.0319 33.5514 46.0311 33.5534 46.0301C33.5637 46.025 33.5735 46.0203 33.5827 46.0157C33.6517 45.9823 33.6895 45.9671 33.6895 45.9671L31.3142 44.7282L27.9151 42.9557L27.9007 42.9482L26.7664 42.3566L22.2443 39.998L21.7058 41.2238L20.0586 44.9735C20.102 45.0702 20.1433 45.168 20.1823 45.2669C20.3082 45.5855 20.4121 45.9124 20.4931 46.2453C21.1262 48.8216 20.5261 51.9094 19.1509 54.7812C19.1506 54.7814 19.1506 54.782 19.1503 54.7822C17.8415 57.5156 15.8306 60.0536 13.513 61.7696Z" fill="url(#paint5_linear_798_15164)"/>
<path opacity="0.7" d="M23.9762 42.5137C24.1507 44.9031 26.0123 46.3332 27.8386 47.2489C29.7099 48.1872 30.0862 48.831 29.7636 51.2497C29.7886 51.1424 29.815 51.0371 29.8426 50.9338C29.8496 50.9083 29.8565 50.8832 29.8634 50.858C29.958 50.5165 30.0723 50.1808 30.2059 49.8525C30.2081 49.8468 30.2106 49.8414 30.2128 49.8357C30.3395 49.5263 30.4847 49.2248 30.6476 48.9328C30.7698 48.7143 30.8971 48.5102 31.0274 48.3199C31.2128 48.0487 31.4155 47.7899 31.6342 47.5449C32.4404 46.6418 33.2368 46.1891 33.5509 46.0323L33.5554 46.03C33.5807 46.0159 33.6746 45.9582 33.6914 45.9669L31.3161 44.728L23.9762 42.5137Z" fill="#FC8B72"/>
<path d="M26.5217 43.8504C28.4824 45.0031 31.1489 45.913 33.5829 46.0154C35.5844 46.0997 37.3572 45.8696 38.3657 45.1649C40.0756 43.9705 39.5938 42.0437 39.2765 41.2064C39.1616 40.9031 39.42 40.6035 39.618 40.2667L39.618 40.2667L39.6181 40.2667L39.6182 40.2666L39.6182 40.2665C39.7246 40.085 39.8139 39.8933 39.8181 39.6842C39.8368 38.8008 38.9734 38.755 38.9442 38.7537C38.9449 38.7537 38.9462 38.7535 38.9477 38.7535C38.9479 38.7535 38.9482 38.7532 38.9487 38.7535C38.9507 38.7532 38.9534 38.753 38.9567 38.7527C38.9624 38.7522 38.9699 38.7517 38.9776 38.751C39.1319 38.7363 39.7722 38.6483 40.1903 38.1837C40.6232 37.7026 40.3291 37.0002 40.3171 36.9718C40.317 36.9714 40.3169 36.9711 40.3166 36.9708C39.6017 36.7641 39.2884 36.2935 39.1561 35.9234C39.0982 35.7616 40.4557 35.1477 40.1718 33.3575C40.1718 33.3575 37.3198 32.0609 35.4952 30.4865C35.0221 30.0785 34.7881 28.0912 34.4181 26.5542C34.19 25.6124 33.6237 24.7872 32.8269 24.2356C32.1873 23.7909 31.2506 23.1942 30.019 22.5469C30.0192 22.5486 30.0192 22.5501 30.0195 22.5516C30.0339 22.7226 30.3899 27.38 26.893 30.1082C25.6704 31.0618 24.6781 31.9828 23.8837 32.8662C23.766 32.9966 23.1722 35.6821 23.1464 35.8485C22.691 38.7879 22.7595 41.6385 26.5217 43.8504Z" fill="#FFD0C0"/>
<path opacity="0.7" d="M26.5218 43.8501C28.4823 45.0029 31.1488 45.9129 33.5829 46.0153C35.5845 46.0996 37.357 45.8695 38.3655 45.1649C39.5908 44.3091 39.6906 43.0772 39.5319 42.1396V42.1394C39.477 41.8208 39.3914 41.5083 39.2763 41.2062C39.2272 41.0766 39.2465 40.9475 39.3 40.8158C39.3717 40.64 39.5047 40.4594 39.6178 40.2666L39.6179 40.2666L39.618 40.2665L39.6181 40.2664L39.6181 40.2663C39.7245 40.0848 39.8138 39.8932 39.8181 39.6842C39.8369 38.8006 38.9734 38.7548 38.9441 38.7536C38.9449 38.7536 38.9462 38.7533 38.9477 38.7533C38.948 38.7533 38.9482 38.753 38.9487 38.7533C38.9505 38.753 38.9534 38.7528 38.9567 38.7525C38.9624 38.752 38.9698 38.7515 38.9775 38.751C39.1318 38.7361 39.7721 38.6481 40.1902 38.1835C40.6233 37.7024 40.3291 37.0001 40.317 36.9716C40.3169 36.9712 40.3167 36.9708 40.3165 36.9705C39.6016 36.764 39.2884 36.2935 39.156 35.9232C39.0981 35.7614 40.4556 35.1476 40.1717 33.3574C40.1717 33.3574 37.3197 32.0606 35.4951 30.4864C35.0222 30.0783 34.7879 28.0911 34.4181 26.5542C34.19 25.6123 33.6237 24.7872 32.8269 24.2355C32.1872 23.7909 31.2507 23.1941 30.0189 22.5469C30.0192 22.5484 30.0192 22.55 30.0195 22.5515C30.0338 22.7225 30.3897 27.3799 26.8931 30.1082C25.6704 31.0616 24.6781 31.9827 23.8838 32.866C23.766 32.9964 23.1723 35.682 23.1463 35.8484C22.6909 38.7878 22.7595 41.6384 26.5218 43.8501Z" fill="url(#paint6_linear_798_15164)"/>
<path opacity="0.5" d="M33.6602 31.5308C33.5984 30.8063 33.1919 30.0178 32.6625 29.8028C32.133 29.5879 31.5527 30.0064 31.0587 30.6719C30.5648 31.3373 30.2762 31.78 30.2762 31.78C30.2762 31.78 31.0546 32.107 32.2277 32.0247C33.4008 31.9424 33.6602 31.5308 33.6602 31.5308Z" fill="#FC8B72"/>
<path opacity="0.7" d="M23.5442 33.2559L24.7982 34.0042C24.5113 32.2034 27.198 31.3224 28.865 28.5188C29.749 27.0322 30.28 24.9241 30.0196 22.5527C30.0339 22.7237 30.39 27.3809 26.893 30.1091C25.4897 31.2039 24.3899 32.2552 23.5442 33.2559Z" fill="#FC8B72"/>
<path d="M37.5147 38.8247C37.5147 38.8247 38.0578 38.989 38.9442 38.7537C38.9449 38.7537 38.9462 38.7534 38.9477 38.7534C38.9479 38.7534 38.9482 38.7532 38.9487 38.7534C38.9507 38.7532 38.9534 38.7529 38.9567 38.7527C38.9624 38.7522 38.9699 38.7517 38.9776 38.7509C39.1319 38.7362 39.7722 38.6482 40.1903 38.1836C40.6232 37.7025 40.3291 37.0001 40.3171 36.9717C40.317 36.9713 40.3169 36.971 40.3166 36.9707C40.1244 36.9954 39.6197 37.2102 39.3512 37.5385C39.2603 37.6499 39.1793 37.7696 39.0948 37.886C38.9629 38.0674 38.829 38.2596 38.6693 38.4182C38.5306 38.5516 38.3647 38.6534 38.183 38.7165C37.8746 38.8312 37.5147 38.8247 37.5147 38.8247Z" fill="#FF6064"/>
<path d="M32.4777 29.7782C32.7958 29.8475 33.0211 30.1012 33.1642 30.3799C33.3171 30.6675 33.3911 30.9807 33.4915 31.2915C33.5572 31.4588 33.8005 31.3595 33.7293 31.1936C33.4785 30.6185 33.1999 29.8316 32.4846 29.7364C32.4792 29.7359 32.4739 29.7375 32.4697 29.7408C32.4654 29.7441 32.4626 29.7488 32.4617 29.7541C32.4609 29.7594 32.462 29.7648 32.465 29.7693C32.4679 29.7737 32.4725 29.7769 32.4777 29.7782Z" fill="#FC8B72"/>
<path d="M30.2866 31.7346C31.4427 31.9919 32.6216 31.893 33.5995 31.1786C33.625 31.1604 33.6555 31.1505 33.6868 31.1504C33.7181 31.1503 33.7487 31.1598 33.7743 31.1778C33.7949 31.1926 33.8163 31.2063 33.8383 31.2187C33.9968 31.3071 34.1797 31.3359 34.3623 31.3453C34.6131 31.3544 34.8639 31.3279 35.1073 31.2667C35.1152 31.2645 35.1237 31.2652 35.1313 31.2686C35.1389 31.272 35.145 31.2779 35.1487 31.2853C35.1523 31.2928 35.1533 31.3013 35.1514 31.3093C35.1495 31.3174 35.1448 31.3245 35.1382 31.3295C34.7107 31.657 34.23 31.9084 33.7172 32.0728C32.7936 32.3682 31.7815 32.3398 30.8588 32.0548C30.6518 31.9927 30.4499 31.9145 30.255 31.8209C30.245 31.8158 30.2372 31.8071 30.2331 31.7966C30.229 31.7861 30.2289 31.7745 30.2328 31.7639C30.2366 31.7533 30.2443 31.7445 30.2542 31.7391C30.2641 31.7337 30.2756 31.7321 30.2866 31.7346Z" fill="#241F3F"/>
<path d="M29.42 29.0098C29.5332 28.8431 29.6916 28.7166 29.8494 28.596C30.0106 28.4824 30.1797 28.3804 30.3554 28.2907C30.6633 28.1375 30.9841 28.0116 31.3141 27.9145C31.6472 27.8209 31.9838 27.742 32.3333 27.7344C32.6403 27.7355 32.8988 28.1164 33.011 28.3679C33.0123 28.3762 33.0119 28.3847 33.0099 28.3929C33.0079 28.4011 33.0043 28.4089 32.9993 28.4157C32.9943 28.4225 32.988 28.4282 32.9808 28.4326C32.9735 28.437 32.9655 28.4399 32.9572 28.4412L32.9551 28.4415L32.8875 28.4519C32.1614 28.5985 31.4445 28.7875 30.7405 29.0179C30.4278 29.1261 30.1086 29.2292 29.8373 29.4218C29.4942 29.6738 29.2393 30.0276 29.1088 30.4328C29.1065 30.4417 29.1011 30.4494 29.0935 30.4545C29.086 30.4597 29.0768 30.4619 29.0677 30.4607C29.0586 30.4595 29.0503 30.4551 29.0443 30.4482C29.0382 30.4414 29.0349 30.4326 29.0349 30.4234C29.0505 29.9323 29.1419 29.4244 29.42 29.0098Z" fill="#241F3F"/>
<path d="M22.2439 45.7465C18.545 45.7465 15.5464 42.748 15.5464 39.049C15.5464 35.3501 18.545 32.3516 22.2439 32.3516C25.9428 32.3516 28.9414 35.3501 28.9414 39.049C28.9414 42.748 25.9428 45.7465 22.2439 45.7465Z" fill="#7938D6"/>
<path d="M18.3939 42.9006C16.2667 40.7733 16.2667 37.3243 18.3939 35.1971C20.5212 33.0698 23.9702 33.0698 26.0975 35.1971C28.2247 37.3243 28.2247 40.7733 26.0975 42.9006C23.9702 45.0279 20.5212 45.0279 18.3939 42.9006Z" fill="#5F25BA"/>
<path d="M17.2325 39.049C17.1535 41.8161 19.4763 44.0612 22.2447 44.0612C25.0129 44.0612 27.2569 41.8174 27.2569 39.049C27.2569 36.2808 25.0129 34.0367 22.2447 34.0367C20.0107 33.1691 18.368 20.062 26.0571 17.4783C26.0571 17.4783 26.0597 17.4775 26.0651 17.4757C26.2045 17.4289 26.3468 17.3858 26.4922 17.3464L26.4945 17.3456L27.5977 17.548L27.3678 17.1064H27.3675C25.7128 16.1406 22.803 16.237 22.803 16.237C18.6807 17.7627 17.0193 22.1135 16.7447 25.7999C16.3032 31.7302 18.2731 34.2903 17.9409 36.4017C17.7928 37.3431 17.2741 37.5835 17.2325 39.049Z" fill="#B571FF"/>
<path d="M22.2447 42.6122C20.2764 42.6122 18.6807 41.0166 18.6807 39.0483C18.6807 37.08 20.2764 35.4844 22.2447 35.4844C24.213 35.4844 25.8086 37.08 25.8086 39.0483C25.8086 41.0166 24.213 42.6122 22.2447 42.6122Z" fill="white"/>
<path d="M22.246 40.7444C22.5813 40.7444 22.9091 40.6449 23.1879 40.4586C23.4667 40.2723 23.684 40.0076 23.8123 39.6978C23.9407 39.388 23.9742 39.0471 23.9088 38.7182C23.8434 38.3893 23.6819 38.0872 23.4448 37.8501C23.2077 37.613 22.9056 37.4515 22.5768 37.3861C22.2479 37.3207 21.907 37.3542 21.5972 37.4826C21.2874 37.6109 21.0226 37.8282 20.8363 38.107C20.65 38.3858 20.5506 38.7136 20.5506 39.0489C20.5511 39.4984 20.7299 39.9294 21.0477 40.2472C21.3655 40.5651 21.7965 40.7438 22.246 40.7444ZM22.246 37.6107C22.5304 37.6107 22.8085 37.695 23.045 37.853C23.2816 38.0111 23.4659 38.2357 23.5748 38.4985C23.6836 38.7613 23.7121 39.0505 23.6566 39.3295C23.6011 39.6085 23.4641 39.8648 23.263 40.066C23.0619 40.2671 22.8056 40.4041 22.5266 40.4596C22.2476 40.5151 21.9584 40.4866 21.6956 40.3777C21.4328 40.2689 21.2081 40.0845 21.0501 39.848C20.8921 39.6115 20.8077 39.3334 20.8077 39.0489C20.8081 38.6676 20.9598 38.302 21.2294 38.0324C21.4991 37.7628 21.8647 37.6111 22.246 37.6107Z" fill="#B3B3B3"/>
<path d="M38.9923 35.7295C39.1732 35.6544 39.4301 35.4567 39.37 35.2282C39.3578 35.1967 39.3375 35.169 39.3113 35.1479C39.285 35.1267 39.2536 35.1127 39.2203 35.1074C39.0339 35.0818 38.8648 35.2158 38.7264 35.315C38.5372 35.4595 38.3625 35.6307 38.1885 35.7854C38.1239 35.8462 38.0539 35.9008 37.9791 35.9485C37.9708 35.9531 37.9623 35.9571 37.9534 35.9604C37.952 35.9612 37.9532 35.9603 37.9533 35.9607C37.9533 35.9607 37.9582 35.9602 37.9571 35.9606C37.6703 35.9522 37.3507 35.7831 37.2308 35.5117C37.1726 35.3776 37.1746 35.2252 37.2069 35.0798C37.2078 35.0754 37.2071 35.0708 37.205 35.0669C37.2029 35.0629 37.1995 35.0598 37.1954 35.0581C37.1912 35.0564 37.1866 35.0562 37.1823 35.0575C37.178 35.0588 37.1743 35.0616 37.1719 35.0653C36.9035 35.4892 37.1714 35.9513 37.5952 36.1328C37.7164 36.185 37.8555 36.2239 37.991 36.2134C38.0538 36.2007 38.1129 36.1738 38.1638 36.1346C38.4825 35.8998 38.7226 35.5695 39.0368 35.3428C39.0914 35.3083 39.1591 35.2599 39.2194 35.2768C39.2234 35.2777 39.2269 35.2801 39.2292 35.2836C39.2385 35.3054 39.2399 35.3297 39.2333 35.3524C39.2154 35.4201 39.1824 35.4827 39.1367 35.5357C39.0877 35.594 39.032 35.6463 38.9706 35.6914C38.9664 35.6947 38.9634 35.6993 38.9624 35.7046C38.9613 35.7098 38.9622 35.7153 38.9648 35.7199C38.9675 35.7246 38.9717 35.7281 38.9768 35.7299C38.9818 35.7316 38.9873 35.7315 38.9923 35.7295Z" fill="#FC8B72"/>
<path opacity="0.65" d="M37.5126 38.825C37.5126 38.825 38.0404 40.4474 39.6159 40.2668L39.616 40.2667L39.6161 40.2667L39.6161 40.2666L39.6162 40.2665C39.7227 40.0851 39.8119 39.8934 39.8161 39.6843C39.8347 38.801 38.9712 38.7551 38.9422 38.7539H38.9415C38.9415 38.7539 38.1059 38.9479 37.5126 38.825Z" fill="#FF6064"/>
<path opacity="0.5" d="M40.3164 36.9707C39.6016 36.7641 39.2882 36.2934 39.1559 35.9233C39.0981 35.7615 40.4554 35.1475 40.1715 33.3574C40.1747 34.265 39.738 35.0621 39.2056 35.2442C38.6734 35.4265 38.6079 35.5595 38.3218 35.8525C38.0833 36.0966 39.4528 37.0975 40.3164 36.9707Z" fill="#FC8B72"/>
<path d="M24.4509 9.35343C24.4751 9.35341 24.499 9.34771 24.5206 9.33677C24.5422 9.32584 24.5609 9.30998 24.5752 9.29048C24.5896 9.27098 24.5991 9.24839 24.6031 9.22451C24.6071 9.20064 24.6054 9.17617 24.5982 9.15306C24.3141 8.24405 24.7405 7.164 25.569 6.69421C26.3974 6.22449 27.5432 6.41308 28.1774 7.12366C28.1961 7.1446 28.2201 7.16005 28.2469 7.16834C28.2738 7.17662 28.3023 7.17743 28.3296 7.17068C28.3568 7.16393 28.3817 7.14987 28.4016 7.13001C28.4214 7.11016 28.4355 7.08527 28.4422 7.05801C28.6272 6.31118 28.8369 5.46471 29.3154 4.78521C29.8184 4.07109 30.5933 3.66937 31.2903 3.7616C31.7276 3.81956 32.1767 4.0756 32.5548 4.48253C32.9082 4.86282 33.1697 5.32357 33.4227 5.76916C33.4397 5.79918 33.4663 5.82261 33.4983 5.83572C33.5302 5.84883 33.5656 5.85085 33.5988 5.84146C33.632 5.83208 33.6611 5.81182 33.6815 5.78395C33.7018 5.75607 33.7122 5.72217 33.7111 5.68767C33.6825 4.8578 33.7925 4.23214 34.0574 3.71871C34.3802 3.09295 34.9715 2.67111 35.5638 2.64399C36.277 2.61123 36.8868 3.11463 37.2196 3.59658C37.6165 4.17139 37.8063 4.8659 37.9899 5.53755C38.0008 5.57694 38.0269 5.61041 38.0624 5.63062C38.0979 5.65083 38.14 5.65613 38.1794 5.64536C38.2188 5.63458 38.2523 5.60861 38.2726 5.57315C38.2929 5.53768 38.2983 5.49561 38.2876 5.45617C38.106 4.79204 37.9002 4.03931 37.4735 3.42125C36.989 2.71951 36.2515 2.30341 35.5497 2.33574C34.849 2.36782 34.1556 2.85514 33.7832 3.57726C33.5592 4.01149 33.4361 4.5124 33.4056 5.12553C33.2245 4.82738 33.0251 4.5353 32.7809 4.2725C32.4789 3.94753 31.9823 3.54204 31.3309 3.45572C30.5218 3.34844 29.6315 3.80056 29.0632 4.60752C28.6083 5.25335 28.3863 6.01717 28.2081 6.72181C27.4577 6.07193 26.2852 5.93337 25.4168 6.42579C24.4668 6.96445 23.9779 8.20285 24.3037 9.24515C24.3135 9.27652 24.3331 9.30394 24.3596 9.32341C24.3861 9.34289 24.4181 9.35341 24.4509 9.35343Z" fill="#241F3F"/>
<path d="M59.9579 27.7236C60.0213 27.7253 60.0843 27.7139 60.143 27.6901C60.2017 27.6663 60.2548 27.6306 60.299 27.5852C60.507 27.3594 60.3823 26.9744 60.0917 26.8918C59.7918 26.8066 59.5683 27.1036 59.604 27.3796C59.6133 27.4638 59.6468 27.5435 59.7005 27.6091C59.7329 27.6453 59.7726 27.6742 59.8169 27.6939C59.8613 27.7137 59.9094 27.7238 59.9579 27.7236Z" fill="#241F3F"/>
<path d="M1.91955 38.4889C1.94378 38.4889 1.96797 38.4872 1.99195 38.4838C1.99235 38.4837 1.99275 38.4836 1.99316 38.4836C2.09101 38.4798 2.18607 38.4499 2.26859 38.3972C2.35111 38.3445 2.41811 38.2708 2.46269 38.1836C2.51089 38.0807 2.52668 37.9657 2.50798 37.8537C2.48927 37.7417 2.43695 37.638 2.35795 37.5564C2.33472 37.5332 2.30935 37.5122 2.28219 37.4938C2.24479 37.455 2.20049 37.4234 2.15156 37.4008C1.96212 37.3138 1.71703 37.3826 1.58133 37.561C1.50191 37.6694 1.45969 37.8007 1.46097 37.9351C1.45111 38.02 1.46468 38.106 1.50022 38.1837C1.52461 38.2602 1.56853 38.329 1.62763 38.3833C1.70871 38.4531 1.81259 38.4907 1.91955 38.4889Z" fill="#241F3F"/>
<path d="M3.48685 3.91874C3.55345 3.91723 3.61887 3.90076 3.67825 3.87054C3.73763 3.84033 3.78945 3.79714 3.82987 3.74418C3.93252 3.60975 3.95576 3.41288 3.86643 3.26595C3.82245 3.19106 3.76378 3.12584 3.69396 3.0742C3.64101 3.03922 3.58031 3.01772 3.51715 3.01159C3.45399 3.00545 3.39028 3.01486 3.33159 3.039C3.17901 3.10196 3.09596 3.25198 3.07896 3.41059C3.05431 3.64056 3.1942 3.88745 3.43791 3.91609C3.45415 3.918 3.4705 3.91888 3.48685 3.91874Z" fill="#241F3F"/>
<path d="M68.4357 61.2643C68.5236 61.2645 68.6103 61.2437 68.6885 61.2036C68.7793 61.1545 68.8565 61.0837 68.9131 60.9975C68.9697 60.9112 69.0041 60.8123 69.013 60.7095C69.027 60.5618 68.9852 60.4247 68.8984 60.3332C68.8874 60.3217 68.8758 60.3108 68.8635 60.3007C68.8225 60.2278 68.7639 60.1664 68.6929 60.1222C68.5986 60.0654 68.4885 60.0405 68.3789 60.0513C68.2693 60.062 68.1661 60.1078 68.0846 60.1818C67.9543 60.3029 67.912 60.4677 67.8994 60.5846C67.8759 60.8046 67.9444 61.0099 68.0827 61.1339C68.1804 61.2191 68.3061 61.2655 68.4357 61.2643Z" fill="#241F3F"/>
<path d="M69.0078 18.3762C69.0145 18.3762 69.0212 18.3761 69.028 18.3758C69.8243 18.3429 69.2493 17.0942 68.7391 17.5682C68.4661 17.8218 68.6054 18.3747 69.0078 18.3762Z" fill="#241F3F"/>
<path d="M44.5399 7.43589C44.7945 7.4363 45.0471 7.39094 45.2856 7.30197C45.6173 7.17546 45.9129 6.96928 46.1461 6.7016C46.3794 6.43393 46.5432 6.11298 46.6232 5.76705L46.6299 5.73703C46.6463 5.66227 46.6617 5.59164 46.6963 5.55561C46.7619 5.48728 46.9218 5.51594 47.0629 5.54126L47.0854 5.54529C47.4401 5.60836 47.8046 5.58704 48.1495 5.48303C48.4944 5.37903 48.8099 5.19527 49.0706 4.94664C49.3312 4.69801 49.5297 4.39149 49.6498 4.0519C49.77 3.71231 49.8085 3.34919 49.7622 2.99195C49.7597 2.97185 49.7531 2.95246 49.743 2.93489C49.7329 2.91731 49.7195 2.9019 49.7034 2.88952C49.6874 2.87715 49.6691 2.86806 49.6495 2.86277C49.6299 2.85748 49.6095 2.8561 49.5894 2.8587C49.5693 2.8613 49.5499 2.86784 49.5324 2.87794C49.5148 2.88803 49.4994 2.90149 49.487 2.91755C49.4746 2.9336 49.4656 2.95193 49.4603 2.9715C49.455 2.99107 49.4536 3.01148 49.4562 3.03158C49.4963 3.34077 49.463 3.65504 49.359 3.94896C49.2549 4.24287 49.0832 4.50817 48.8576 4.72336C48.632 4.93855 48.3589 5.09759 48.0604 5.18761C47.7619 5.27762 47.4464 5.29608 47.1394 5.24149L47.1174 5.23753C46.9217 5.20244 46.6538 5.15435 46.4737 5.34192C46.3789 5.44066 46.3509 5.56835 46.3284 5.67096L46.3222 5.69922C46.1899 6.28608 45.7405 6.8018 45.1772 7.01306C44.614 7.22429 43.9363 7.13132 43.4507 6.77614C43.4177 6.75202 43.3764 6.742 43.336 6.74829C43.2956 6.75457 43.2593 6.77664 43.2352 6.80965C43.2111 6.84266 43.201 6.88391 43.2072 6.92433C43.2135 6.96475 43.2355 7.00103 43.2685 7.0252C43.6383 7.29301 44.0834 7.43679 44.5399 7.43589Z" fill="#241F3F"/>
<path d="M68.5526 27.6794C68.5877 27.6794 68.6216 27.6675 68.649 27.6457C68.6764 27.6238 68.6955 27.5933 68.7032 27.5591C68.711 27.525 68.7068 27.4892 68.6915 27.4577C68.6763 27.4262 68.6507 27.4008 68.6191 27.3858C67.7049 26.9505 67.0057 26.4121 66.5411 25.7856C66.3583 25.5399 66.209 25.271 66.0971 24.986C66.5978 24.804 67.0226 24.4133 67.2228 23.9144C67.3682 23.5516 67.3737 23.1918 67.2382 22.9013C67.0694 22.5397 66.663 22.3298 66.3129 22.4235C65.9925 22.5092 65.7487 22.8204 65.644 23.2772C65.5352 23.7519 65.5582 24.2675 65.7002 24.7708C65.6232 24.7834 65.5454 24.7895 65.4675 24.7892C64.8078 24.7869 64.073 24.4096 63.7202 23.8922C63.6095 23.7298 63.4348 23.3178 63.4819 22.8031C63.5378 22.1918 63.8821 21.6619 64.5051 21.2282C64.5217 21.2166 64.5359 21.2019 64.5468 21.1848C64.5578 21.1677 64.5652 21.1487 64.5688 21.1288C64.5724 21.1088 64.572 21.0884 64.5677 21.0686C64.5633 21.0488 64.5552 21.03 64.5436 21.0134C64.532 20.9968 64.5173 20.9826 64.5002 20.9717C64.4831 20.9607 64.4641 20.9533 64.4442 20.9497C64.4242 20.9461 64.4038 20.9465 64.384 20.9508C64.3642 20.9552 64.3454 20.9633 64.3288 20.9749C63.4553 21.583 63.219 22.2894 63.1746 22.775C63.1231 23.3377 63.299 23.8221 63.4653 24.066C63.871 24.6612 64.7126 25.0951 65.4664 25.0978C65.5777 25.0977 65.6888 25.0876 65.7983 25.0676C65.9211 25.3895 66.0877 25.693 66.2932 25.9695C66.7883 26.6369 67.5262 27.2071 68.4864 27.6644C68.5071 27.6743 68.5297 27.6794 68.5526 27.6794ZM66.4868 22.7095C66.671 22.7095 66.8686 22.839 66.9585 23.0318C67.0562 23.2411 67.0481 23.5209 66.9364 23.7995C66.7725 24.2079 66.4139 24.5361 65.9979 24.6916C65.8687 24.2366 65.8471 23.7721 65.9448 23.3461C65.9818 23.1845 66.0996 22.8 66.3926 22.7216C66.4233 22.7135 66.455 22.7094 66.4868 22.7095Z" fill="#241F3F"/>
<path d="M69.1378 51.8807C69.1777 51.8808 69.2161 51.8653 69.2448 51.8375C69.9213 51.1859 70.0287 50.5364 69.9997 50.1064C69.9661 49.6076 69.7443 49.2086 69.5646 49.0184C69.1275 48.5556 68.3326 48.2942 67.6747 48.3972C67.5825 48.4117 67.4918 48.4343 67.4035 48.4648C67.2533 48.2073 67.069 47.9712 66.8556 47.763C66.333 47.2522 65.6134 46.8595 64.7168 46.5961C64.6775 46.5846 64.6353 46.5891 64.5994 46.6087C64.5635 46.6283 64.5368 46.6614 64.5253 46.7006C64.5137 46.7399 64.5183 46.7821 64.5379 46.8181C64.5575 46.854 64.5906 46.8806 64.6298 46.8922C65.4774 47.1412 66.1537 47.5085 66.6399 47.9837C66.826 48.1652 66.9878 48.37 67.1214 48.593C66.7174 48.8238 66.4077 49.2202 66.304 49.678C66.2271 50.0171 66.2732 50.3342 66.4335 50.5711C66.6345 50.868 67.0254 50.9962 67.3234 50.8631C67.5953 50.7417 67.7672 50.433 67.795 50.0162C67.8232 49.5943 67.7347 49.1556 67.5472 48.7429C67.6045 48.725 67.6631 48.7114 67.7224 48.702C68.2783 48.6151 68.9738 48.8422 69.3403 49.2303C69.4487 49.345 69.6617 49.6801 69.6918 50.1271C69.7276 50.6576 69.5052 51.1583 69.0307 51.6153C69.0085 51.6367 68.9933 51.6641 68.9869 51.6942C68.9804 51.7243 68.9832 51.7556 68.9947 51.7841C69.0062 51.8127 69.0259 51.8371 69.0514 51.8543C69.0769 51.8715 69.107 51.8807 69.1378 51.8807ZM67.2656 48.8679C67.433 49.235 67.512 49.6233 67.4871 49.9956C67.4777 50.137 67.4305 50.4773 67.1976 50.5813C67.0348 50.654 66.8067 50.5718 66.6891 50.3981C66.5786 50.235 66.548 49.9974 66.6049 49.7463C66.6874 49.3822 66.9406 49.0586 67.2656 48.8679Z" fill="#241F3F"/>
<path d="M19.7024 13.8466C20.1278 13.8602 20.3029 13.7825 20.3929 13.5263C20.4223 13.4426 20.4423 13.3436 20.4069 13.2505C20.3829 13.1902 20.3453 13.1362 20.297 13.0928C20.1444 12.9472 19.9637 12.8863 19.801 12.9258C19.6077 12.9728 19.4506 13.168 19.419 13.4005C19.4011 13.5327 19.4268 13.6559 19.4895 13.7384C19.514 13.7718 19.5461 13.7991 19.5831 13.8178C19.6201 13.8366 19.6609 13.8465 19.7024 13.8466Z" fill="#241F3F"/>
<path d="M69.6148 38.5276C69.655 38.5309 69.6955 38.5302 69.7357 38.5255C69.8186 38.5184 69.8962 38.482 69.9546 38.4228C69.9973 38.3743 70.0255 38.3149 70.0361 38.2512C70.0483 38.1868 70.0659 38.1129 70.045 38.0418C70.0305 37.9939 70.0064 37.9495 69.9743 37.9112C69.8627 37.7731 69.7224 37.7178 69.5893 37.7599C69.4493 37.8039 69.3418 37.9632 69.3216 38.1561C69.3083 38.2838 69.33 38.4382 69.4625 38.4931C69.5112 38.5123 69.5625 38.524 69.6148 38.5276Z" fill="#241F3F"/>
<path d="M49.6527 10.3301C49.6778 10.3317 49.7029 10.3312 49.7279 10.3288C49.7987 10.3232 49.8665 10.2977 49.9234 10.2551C49.9547 10.2305 49.9806 10.1996 50.0108 10.1736C50.0467 10.1466 50.0799 10.1165 50.1102 10.0834C50.1381 10.0448 50.1529 9.9983 50.1523 9.9507C50.1549 9.82007 50.0808 9.70304 49.9804 9.62411C49.9462 9.59431 49.906 9.57228 49.8624 9.55953C49.8189 9.54678 49.7731 9.54362 49.7283 9.55026C49.6834 9.5569 49.6405 9.5732 49.6025 9.59801C49.5646 9.62283 49.5325 9.65559 49.5084 9.69402C49.4501 9.78141 49.4177 9.88353 49.4149 9.98856C49.4083 10.0633 49.4216 10.1384 49.4535 10.2063C49.4722 10.2425 49.5002 10.273 49.5346 10.2947C49.5691 10.3164 49.6087 10.3286 49.6493 10.3298L49.6527 10.3301Z" fill="#241F3F"/>
<path d="M26.439 13.6641C26.4857 13.6636 26.5318 13.6532 26.5742 13.6336C26.6166 13.6139 26.6543 13.5855 26.6849 13.5502C26.7155 13.5149 26.7383 13.4735 26.7517 13.4288C26.7651 13.384 26.7689 13.3369 26.7628 13.2906C26.751 13.2188 26.7186 13.152 26.6695 13.0984C26.6204 13.0448 26.5567 13.0066 26.4862 12.9887C26.3482 12.9544 26.2237 13.0309 26.1658 13.1549C26.1307 13.2246 26.1149 13.3023 26.1199 13.3801C26.1267 13.4425 26.1517 13.5014 26.1918 13.5496C26.232 13.5978 26.2854 13.6331 26.3455 13.6511C26.3758 13.6601 26.4073 13.6645 26.439 13.6641Z" fill="#241F3F"/>
<path d="M26.2792 12.6858C26.3021 12.6858 26.3247 12.6807 26.3455 12.6709C26.3662 12.661 26.3844 12.6467 26.3989 12.6289C26.4134 12.6111 26.4237 12.5903 26.4292 12.5681C26.4346 12.5458 26.435 12.5226 26.4304 12.5001C26.4135 12.4187 26.3946 12.3368 26.3763 12.2576C26.3325 12.0822 26.2981 11.9046 26.2733 11.7256C26.2708 11.7055 26.2645 11.686 26.2545 11.6684C26.2446 11.6507 26.2312 11.6352 26.2153 11.6227C26.1994 11.6102 26.1811 11.601 26.1616 11.5955C26.1421 11.5901 26.1217 11.5885 26.1016 11.591C26.0815 11.5934 26.062 11.5998 26.0444 11.6097C26.0267 11.6197 26.0112 11.633 25.9987 11.6489C25.9862 11.6649 25.977 11.6831 25.9715 11.7026C25.9661 11.7222 25.9645 11.7426 25.967 11.7627C25.993 11.9526 26.0292 12.1411 26.0756 12.3271C26.0943 12.4082 26.1121 12.4848 26.1282 12.5628C26.1355 12.5975 26.1544 12.6287 26.1819 12.6511C26.2094 12.6735 26.2437 12.6857 26.2792 12.6858Z" fill="#241F3F"/>
<path d="M26.7753 15.089C26.7984 15.089 26.8213 15.0837 26.8422 15.0737C26.863 15.0637 26.8814 15.0491 26.8959 15.031C26.9103 15.0129 26.9205 14.9918 26.9257 14.9692C26.9309 14.9467 26.931 14.9232 26.9259 14.9006C26.8721 14.6623 26.8352 14.4205 26.8154 14.1769C26.8137 14.1567 26.8081 14.1371 26.7989 14.119C26.7896 14.101 26.7769 14.085 26.7615 14.0719C26.746 14.0587 26.7282 14.0488 26.7089 14.0426C26.6896 14.0364 26.6693 14.034 26.6491 14.0357C26.6289 14.0373 26.6092 14.0429 26.5912 14.0522C26.5731 14.0614 26.5571 14.0741 26.544 14.0895C26.5309 14.105 26.5209 14.1229 26.5147 14.1422C26.5085 14.1614 26.5061 14.1818 26.5078 14.202C26.5288 14.4599 26.568 14.7161 26.6249 14.9686C26.6327 15.0028 26.6517 15.0333 26.679 15.0551C26.7064 15.077 26.7403 15.0889 26.7753 15.089Z" fill="#241F3F"/>
<path d="M24.874 13.8226C24.8793 13.8226 24.8846 13.8223 24.8899 13.8218C24.9358 13.8171 25.0469 13.7959 25.2234 13.7609L25.2741 13.7509C25.4179 13.7229 25.5595 13.6844 25.6977 13.6358C25.7363 13.6222 25.7679 13.5938 25.7856 13.5569C25.8033 13.52 25.8056 13.4776 25.792 13.439C25.7784 13.4004 25.7501 13.3688 25.7132 13.3511C25.6763 13.3334 25.6339 13.3311 25.5953 13.3447C25.4713 13.3883 25.3442 13.4229 25.2152 13.448L25.1634 13.4582C25.0842 13.4739 24.8989 13.5107 24.8584 13.5148C24.8191 13.5188 24.7828 13.5378 24.757 13.5678C24.7313 13.5979 24.7181 13.6366 24.72 13.6761C24.722 13.7156 24.7391 13.7528 24.7678 13.7801C24.7964 13.8073 24.8344 13.8225 24.874 13.8226Z" fill="#241F3F"/>
<path d="M27.2937 13.309C27.3079 13.309 27.322 13.307 27.3357 13.3031C27.3931 13.2869 27.4529 13.2732 27.5162 13.2586C27.5491 13.251 27.5821 13.2435 27.6148 13.2355C27.6759 13.2206 27.7348 13.2044 27.7918 13.1888C27.878 13.1651 27.9595 13.1427 28.0439 13.1259C28.0637 13.1219 28.0826 13.1141 28.0995 13.1028C28.1163 13.0916 28.1308 13.0771 28.142 13.0602C28.1533 13.0434 28.1611 13.0245 28.165 13.0046C28.169 12.9847 28.169 12.9643 28.165 12.9444C28.161 12.9245 28.1532 12.9056 28.1419 12.8888C28.1307 12.872 28.1162 12.8575 28.0993 12.8463C28.0825 12.835 28.0636 12.8272 28.0437 12.8233C28.0238 12.8193 28.0034 12.8193 27.9835 12.8233C27.8883 12.8423 27.7977 12.8672 27.71 12.8912C27.6552 12.9063 27.5986 12.9219 27.5418 12.9357C27.5104 12.9433 27.4787 12.9506 27.447 12.9579C27.3829 12.9726 27.3165 12.9879 27.2518 13.0062C27.2159 13.0163 27.185 13.0391 27.1646 13.0703C27.1442 13.1014 27.1358 13.1389 27.1409 13.1758C27.146 13.2127 27.1643 13.2465 27.1924 13.271C27.2204 13.2955 27.2564 13.309 27.2937 13.309Z" fill="#241F3F"/>
<path d="M67.3145 67.9572C67.3525 67.9574 67.3901 67.9495 67.4247 67.9338C67.4593 67.9167 67.4901 67.8929 67.5154 67.8637C67.5407 67.8345 67.5599 67.8006 67.5718 67.7639C67.6017 67.6922 67.612 67.6138 67.6014 67.5369C67.5942 67.4912 67.5768 67.4478 67.5503 67.4098C67.5239 67.3719 67.4892 67.3404 67.4489 67.3178C67.4035 67.2933 67.3531 67.2796 67.3015 67.2776C67.25 67.2756 67.1987 67.2855 67.1516 67.3064C67.0783 67.3394 67.0199 67.3984 66.9877 67.4719C66.9613 67.535 66.9549 67.6047 66.9693 67.6716C66.9819 67.7395 67.0162 67.8015 67.067 67.8483C67.0802 67.8601 67.0944 67.8707 67.1095 67.8799C67.1322 67.8993 67.1575 67.9155 67.1847 67.928C67.2254 67.947 67.2697 67.957 67.3145 67.9572Z" fill="#241F3F"/>
<path d="M67.7245 69.3247C67.7472 69.3247 67.7697 69.3197 67.7903 69.31C67.8109 69.3003 67.8291 69.2861 67.8436 69.2686C67.8581 69.251 67.8685 69.2305 67.8741 69.2084C67.8798 69.1863 67.8804 69.1633 67.8761 69.1409C67.8365 68.9532 67.7868 68.7678 67.7272 68.5854C67.7027 68.506 67.6796 68.431 67.6579 68.3544C67.6523 68.3349 67.643 68.3167 67.6305 68.3008C67.6179 68.2849 67.6023 68.2716 67.5846 68.2617C67.5669 68.2519 67.5475 68.2456 67.5273 68.2432C67.5072 68.2409 67.4868 68.2425 67.4673 68.248C67.4478 68.2536 67.4296 68.2629 67.4137 68.2755C67.3978 68.288 67.3846 68.3036 67.3747 68.3213C67.3648 68.339 67.3585 68.3585 67.3562 68.3786C67.3538 68.3987 67.3555 68.4191 67.361 68.4386C67.3837 68.5185 67.4084 68.5987 67.4323 68.6762C67.4885 68.8481 67.5356 69.0229 67.5732 69.1998C67.58 69.235 67.5989 69.2666 67.6265 69.2894C67.654 69.3122 67.6887 69.3247 67.7245 69.3247Z" fill="#241F3F"/>
<path d="M67.0057 66.9241C67.028 66.9241 67.05 66.9193 67.0702 66.91C67.0904 66.9007 67.1084 66.8872 67.1229 66.8703C67.1374 66.8534 67.148 66.8336 67.1542 66.8122C67.1603 66.7908 67.1617 66.7683 67.1584 66.7463C67.119 66.4905 67.0616 66.2378 66.9866 65.99C66.9747 65.9509 66.9477 65.9182 66.9117 65.899C66.8757 65.8798 66.8335 65.8756 66.7944 65.8875C66.7553 65.8993 66.7225 65.9262 66.7032 65.9621C66.6839 65.9981 66.6796 66.0403 66.6913 66.0794C66.762 66.3133 66.8162 66.5518 66.8534 66.7933C66.859 66.8297 66.8774 66.8629 66.9054 66.8869C66.9333 66.9109 66.9689 66.9241 67.0057 66.9241Z" fill="#241F3F"/>
<path d="M68.0686 67.5494C68.0898 67.5494 68.1107 67.545 68.1301 67.5365C68.2507 67.4841 68.3749 67.4405 68.5018 67.4062L68.5533 67.3921C68.631 67.3709 68.8128 67.3211 68.8528 67.3141C68.8728 67.3106 68.8918 67.3032 68.9089 67.2923C68.926 67.2815 68.9408 67.2673 68.9525 67.2507C68.9641 67.2342 68.9724 67.2154 68.9768 67.1957C68.9812 67.1759 68.9817 67.1554 68.9782 67.1355C68.9747 67.1155 68.9673 67.0965 68.9564 67.0794C68.9455 67.0623 68.9314 67.0475 68.9148 67.0358C68.8982 67.0242 68.8795 67.0159 68.8598 67.0115C68.84 67.0071 68.8195 67.0066 68.7996 67.0101C68.7542 67.0181 68.645 67.0471 68.4718 67.0946L68.4213 67.1083C68.2799 67.1466 68.1414 67.1951 68.007 67.2536C67.9745 67.2677 67.9478 67.2926 67.9315 67.3241C67.9152 67.3557 67.9103 67.3918 67.9175 67.4265C67.9247 67.4612 67.9437 67.4924 67.9712 67.5148C67.9988 67.5372 68.0332 67.5494 68.0686 67.5494Z" fill="#241F3F"/>
<path d="M65.7459 68.2312C65.7598 68.2312 65.7736 68.2293 65.7869 68.2256C65.8805 68.1999 65.9691 68.1685 66.0548 68.1383C66.1084 68.1193 66.1638 68.0997 66.2194 68.0819C66.25 68.0721 66.281 68.0626 66.3119 68.0531C66.375 68.0337 66.4402 68.0137 66.5037 67.9908C66.5227 67.9839 66.5402 67.9733 66.5552 67.9597C66.5702 67.946 66.5823 67.9295 66.5909 67.9112C66.5995 67.8928 66.6044 67.873 66.6053 67.8527C66.6062 67.8325 66.6032 67.8123 66.5963 67.7932C66.5894 67.7742 66.5788 67.7567 66.5651 67.7417C66.5515 67.7267 66.535 67.7146 66.5167 67.706C66.4983 67.6974 66.4785 67.6925 66.4582 67.6916C66.438 67.6906 66.4177 67.6937 66.3987 67.7006C66.3424 67.721 66.2837 67.739 66.2214 67.7581C66.1892 67.768 66.1571 67.7779 66.1252 67.788C66.0652 67.8073 66.0077 67.8276 65.952 67.8473C65.8677 67.8771 65.7881 67.9053 65.705 67.9281C65.6691 67.938 65.6379 67.9607 65.6173 67.9918C65.5967 68.023 65.5881 68.0605 65.5931 68.0975C65.5981 68.1345 65.6163 68.1684 65.6444 68.193C65.6725 68.2176 65.7086 68.2312 65.7459 68.2312Z" fill="#241F3F"/>
<path d="M54.6508 31.4327C54.9106 31.4331 55.1662 31.3673 55.3935 31.2414C55.4293 31.2215 55.4556 31.1881 55.4668 31.1488C55.478 31.1094 55.473 31.0672 55.4531 31.0315C55.4332 30.9958 55.3999 30.9694 55.3605 30.9582C55.3212 30.9471 55.279 30.952 55.2433 30.9719C55.0838 31.0608 54.9064 31.1125 54.7242 31.1233C54.542 31.1341 54.3597 31.1037 54.1908 31.0342C54.022 30.9648 53.8711 30.8581 53.7492 30.7222C53.6274 30.5863 53.5377 30.4246 53.487 30.2493C53.4788 30.221 53.471 30.1916 53.4629 30.1618C53.4005 29.9298 53.3229 29.641 53.0403 29.5617C52.872 29.5144 52.7132 29.5765 52.5855 29.6263C52.5694 29.6326 52.5534 29.6389 52.5375 29.6449C51.9836 29.8534 51.3113 29.6999 50.9027 29.2717C50.6882 29.0414 50.5497 28.7507 50.5059 28.4391C50.482 28.2791 50.483 28.1165 50.509 27.9569C50.5207 27.9075 50.5366 27.8591 50.5566 27.8124C50.5966 27.7088 50.638 27.6016 50.6289 27.4948C50.6272 27.4746 50.6215 27.455 50.6122 27.437C50.6029 27.4189 50.5901 27.403 50.5747 27.3899C50.5592 27.3768 50.5412 27.3669 50.5219 27.3608C50.5026 27.3546 50.4823 27.3524 50.4621 27.3541C50.4419 27.3558 50.4222 27.3615 50.4042 27.3708C50.3862 27.3801 50.3702 27.3929 50.3572 27.4084C50.3441 27.4239 50.3342 27.4418 50.3281 27.4611C50.322 27.4804 50.3197 27.5008 50.3214 27.521C50.3245 27.5568 50.2923 27.6403 50.2687 27.7013C50.2405 27.7675 50.219 27.8363 50.2045 27.9068C50.1734 28.0978 50.1721 28.2925 50.2006 28.4839C50.2538 28.8587 50.421 29.2081 50.6795 29.4847C51.1711 29.9999 51.9798 30.1845 52.6462 29.9336C52.6633 29.9272 52.6805 29.9205 52.6978 29.9138C52.7956 29.8756 52.888 29.8394 52.9569 29.8588C53.0623 29.8884 53.1096 30.0363 53.165 30.242C53.1735 30.2736 53.1819 30.3049 53.1906 30.335C53.2817 30.6518 53.4734 30.9303 53.7369 31.1284C54.0004 31.3264 54.3212 31.4333 54.6508 31.4327Z" fill="#241F3F"/>
<path d="M2.24596 31.3903C2.27592 31.3903 2.30522 31.3816 2.3303 31.3652C2.35538 31.3488 2.37515 31.3255 2.38719 31.298C2.39923 31.2706 2.40302 31.2403 2.39811 31.2107C2.3932 31.1812 2.37978 31.1537 2.35951 31.1316C2.27988 31.045 2.16153 30.9953 2.04705 30.9472C1.99034 30.9257 1.93555 30.8994 1.8833 30.8685C1.72385 30.76 1.58101 30.6289 1.45926 30.4794C1.21548 30.1817 1.06021 29.8222 1.02204 29.4671C0.948216 28.7805 1.30216 28.0954 1.88279 27.801C1.89939 27.7926 1.9163 27.7843 1.93327 27.7759C2.06744 27.7101 2.23443 27.6282 2.31419 27.4532C2.44429 27.1675 2.25798 26.8815 2.1083 26.6517C2.08838 26.6212 2.06875 26.5911 2.05024 26.5615C1.81966 26.1937 1.754 25.7208 1.87885 25.3275C1.94022 25.1354 2.04595 24.9604 2.1875 24.8167C2.32905 24.673 2.50243 24.5647 2.69362 24.5004C2.73259 24.4879 2.76499 24.4605 2.78371 24.4241C2.80242 24.3877 2.80591 24.3453 2.7934 24.3064C2.7809 24.2674 2.75344 24.235 2.71705 24.2163C2.68065 24.1976 2.63832 24.1941 2.59935 24.2066C2.36062 24.2847 2.144 24.4187 1.96752 24.5974C1.79103 24.7761 1.6598 24.9944 1.58475 25.2341C1.43091 25.7187 1.5072 26.2761 1.78878 26.7254C1.80824 26.7564 1.82883 26.7881 1.84975 26.8202C1.96943 27.0039 2.0932 27.1939 2.03339 27.3252C1.99941 27.3998 1.90128 27.448 1.79737 27.4989C1.77916 27.5079 1.76103 27.5168 1.74325 27.5258C1.05075 27.8769 0.627992 28.6888 0.71523 29.5001C0.759752 29.9141 0.939201 30.3313 1.22055 30.6749C1.36121 30.8476 1.52622 30.9989 1.7104 31.1241C1.7792 31.1669 1.85193 31.2029 1.92759 31.2317C2.00366 31.2637 2.09828 31.3034 2.1323 31.3404C2.14674 31.3562 2.16431 31.3687 2.18388 31.3773C2.20344 31.3859 2.22459 31.3903 2.24596 31.3903Z" fill="#241F3F"/>
<path d="M3.92502 18.5453C3.98364 18.5454 4.04128 18.5302 4.09218 18.5011C4.15343 18.4648 4.20208 18.4106 4.23157 18.3458C4.26324 18.2813 4.27318 18.2083 4.25988 18.1377C4.25621 18.1196 4.25091 18.102 4.24405 18.0849C4.23716 18.0545 4.22609 18.0253 4.21116 17.998C4.19295 17.9603 4.16664 17.9272 4.13411 17.9009C4.10158 17.8746 4.06364 17.8558 4.02301 17.8459C3.98238 17.8361 3.94006 17.8353 3.89909 17.8436C3.85812 17.852 3.81951 17.8694 3.78602 17.8944C3.71652 17.9356 3.6593 17.9947 3.62026 18.0654C3.59791 18.108 3.5855 18.1552 3.58398 18.2033C3.58245 18.2513 3.59185 18.2992 3.61146 18.3431C3.63414 18.3917 3.66766 18.4345 3.70945 18.4682C3.75124 18.5019 3.80019 18.5256 3.85254 18.5374C3.87634 18.5427 3.90064 18.5453 3.92502 18.5453Z" fill="#241F3F"/>
<path d="M4.22016 17.5931C4.25145 17.5931 4.28199 17.5835 4.30774 17.5658C4.3335 17.548 4.35325 17.5229 4.36438 17.4936C4.39396 17.4159 4.42203 17.3368 4.4492 17.2603C4.50672 17.0888 4.57336 16.9206 4.64884 16.7563C4.65762 16.738 4.66271 16.7182 4.66383 16.698C4.66495 16.6777 4.66207 16.6575 4.65536 16.6384C4.64865 16.6192 4.63824 16.6016 4.62473 16.5865C4.61121 16.5714 4.59486 16.5592 4.5766 16.5504C4.55833 16.5416 4.53852 16.5365 4.51829 16.5354C4.49806 16.5343 4.47781 16.5372 4.45869 16.5439C4.43957 16.5506 4.42196 16.561 4.40686 16.5745C4.39176 16.588 4.37948 16.6044 4.37071 16.6226C4.29035 16.7968 4.21948 16.9752 4.15841 17.157C4.13059 17.2354 4.10432 17.3094 4.076 17.3839C4.06712 17.4072 4.06405 17.4324 4.06705 17.4572C4.07005 17.482 4.07902 17.5057 4.0932 17.5263C4.10738 17.5469 4.12633 17.5637 4.14845 17.5753C4.17056 17.5869 4.19517 17.593 4.22016 17.5931Z" fill="#241F3F"/>
<path d="M3.34918 19.8866C3.38092 19.8866 3.41189 19.8768 3.43787 19.8586C3.46384 19.8403 3.48355 19.8145 3.49432 19.7846C3.57727 19.5548 3.67629 19.3311 3.79064 19.1152C3.80013 19.0973 3.80599 19.0777 3.8079 19.0575C3.80982 19.0373 3.80774 19.017 3.80179 18.9976C3.79584 18.9783 3.78613 18.9603 3.77322 18.9446C3.76031 18.929 3.74445 18.9161 3.72654 18.9066C3.70864 18.8971 3.68904 18.8913 3.66887 18.8894C3.6487 18.8874 3.62835 18.8895 3.60898 18.8955C3.58962 18.9014 3.57161 18.9111 3.556 18.924C3.54038 18.937 3.52746 18.9528 3.51798 18.9707C3.39683 19.1995 3.29192 19.4365 3.20403 19.68C3.19565 19.7033 3.19299 19.7282 3.19628 19.7528C3.19957 19.7773 3.20872 19.8007 3.22295 19.821C3.23719 19.8412 3.25609 19.8578 3.27806 19.8692C3.30002 19.8806 3.32442 19.8866 3.34918 19.8866Z" fill="#241F3F"/>
<path d="M3.17396 18.0625C3.21181 18.0625 3.24832 18.0485 3.27656 18.0233C3.3048 17.9981 3.32279 17.9634 3.32712 17.9258C3.33144 17.8882 3.32179 17.8503 3.3 17.8194C3.27822 17.7884 3.24582 17.7666 3.20897 17.758C3.08097 17.728 2.95532 17.6887 2.83304 17.6405L2.7846 17.6215C2.70927 17.5921 2.53288 17.5231 2.4964 17.5048C2.4783 17.4956 2.45858 17.4902 2.43838 17.4887C2.41817 17.4872 2.39788 17.4897 2.37864 17.4961C2.3594 17.5024 2.3416 17.5125 2.32626 17.5257C2.31092 17.539 2.29834 17.5551 2.28923 17.5732C2.28012 17.5913 2.27466 17.611 2.27318 17.6312C2.27169 17.6514 2.27419 17.6717 2.28055 17.691C2.2869 17.7102 2.29699 17.728 2.31022 17.7433C2.32346 17.7587 2.33958 17.7713 2.35768 17.7804C2.39899 17.8012 2.50431 17.8432 2.67228 17.9089L2.71969 17.9275C2.85599 17.9813 2.99603 18.025 3.1387 18.0584C3.15026 18.0611 3.16209 18.0625 3.17396 18.0625Z" fill="#241F3F"/>
<path d="M5.44333 18.9017C5.47931 18.9017 5.51416 18.8892 5.54186 18.8662C5.56955 18.8432 5.58835 18.8113 5.595 18.7759C5.60165 18.7406 5.59573 18.704 5.57827 18.6725C5.56081 18.6411 5.5329 18.6167 5.49938 18.6037C5.4089 18.5684 5.3191 18.5406 5.23229 18.5137C5.178 18.4969 5.1219 18.4796 5.06663 18.4607C5.03612 18.4502 5.00556 18.4393 4.97502 18.4284C4.91292 18.4063 4.84871 18.3834 4.7842 18.364C4.7648 18.3581 4.74444 18.3562 4.72429 18.3582C4.70413 18.3602 4.68456 18.3662 4.66671 18.3758C4.64886 18.3854 4.63307 18.3984 4.62024 18.414C4.60742 18.4297 4.59781 18.4478 4.59196 18.4672C4.58611 18.4866 4.58414 18.5069 4.58617 18.5271C4.58819 18.5473 4.59416 18.5668 4.60374 18.5847C4.61333 18.6025 4.62633 18.6183 4.64201 18.6311C4.6577 18.644 4.67576 18.6536 4.69516 18.6594C4.75236 18.6767 4.81019 18.6973 4.87144 18.7191C4.90321 18.7304 4.935 18.7417 4.96671 18.7526C5.0263 18.773 5.08464 18.791 5.14104 18.8085C5.22647 18.8349 5.30715 18.8599 5.38738 18.8912C5.40521 18.8981 5.42419 18.9017 5.44333 18.9017Z" fill="#241F3F"/>
<path d="M20.6389 6.77788C20.6782 6.77783 20.7161 6.76274 20.7447 6.7357C20.7733 6.70865 20.7905 6.6717 20.7927 6.63241C20.795 6.59311 20.7821 6.55445 20.7568 6.52432C20.7315 6.49419 20.6956 6.47487 20.6565 6.47033C19.944 6.38457 19.2894 6.03544 18.8212 5.49155C18.7148 5.36669 18.6196 5.23268 18.5366 5.0911C18.8593 4.82536 19.1259 4.49814 19.321 4.12846C19.5265 3.73477 19.5962 3.37506 19.5282 3.05932C19.4464 2.67872 19.1002 2.30705 18.6622 2.34439C18.1253 2.38996 17.8567 2.98181 17.8344 3.51243C17.8146 4.02873 17.9208 4.54208 18.1439 5.00813C17.396 5.53775 16.4121 5.74032 15.5237 5.47558C15.4846 5.46401 15.4424 5.46845 15.4065 5.48793C15.3706 5.5074 15.3439 5.54033 15.3322 5.57948C15.3205 5.61863 15.3249 5.66081 15.3442 5.69677C15.3636 5.73273 15.3965 5.75953 15.4356 5.7713C16.1434 5.98225 16.9341 5.92891 17.6621 5.62109C17.8821 5.52827 18.0922 5.41343 18.2891 5.27832C18.3767 5.42412 18.4762 5.56245 18.5865 5.69189C19.1055 6.29478 19.8311 6.68178 20.6209 6.77684C20.6269 6.77754 20.6329 6.77788 20.6389 6.77788ZM18.7198 2.65053C18.9633 2.65053 19.1759 2.88864 19.2266 3.12425C19.279 3.36772 19.2187 3.65753 19.0474 3.98567C18.8823 4.29928 18.6604 4.57946 18.3929 4.81193C18.2113 4.40815 18.1257 3.9678 18.1428 3.52539C18.1568 3.19167 18.3136 2.68365 18.6883 2.65186C18.6988 2.65097 18.7094 2.65053 18.7198 2.65053Z" fill="#241F3F"/>
<path d="M53.4285 24.1371C53.4512 24.165 53.4747 24.1923 53.4991 24.219C53.7908 24.5383 54.1692 24.7233 54.5372 24.7264C54.8878 24.7293 55.2498 24.575 55.6131 24.2675C56.0412 23.9053 56.3363 23.4655 56.4664 22.9956C56.6155 22.4575 56.5322 21.8853 56.2438 21.4649C55.9526 21.0406 55.4162 20.7986 54.8438 20.8334C54.1297 20.8768 53.4454 21.392 53.1408 22.1152C53.0043 22.4473 52.959 22.8099 53.0096 23.1653C53.0602 23.5208 53.2048 23.8563 53.4285 24.1371ZM55.9405 21.5741C55.9576 21.5952 55.9739 21.617 55.9893 21.6394C56.2269 21.9857 56.2941 22.4619 56.1691 22.9132C56.0256 23.431 55.6792 23.8074 55.4138 24.032C55.1085 24.2903 54.8144 24.4201 54.5398 24.4178C54.2573 24.4154 53.961 24.2671 53.7269 24.0109C53.304 23.5481 53.1799 22.8176 53.4252 22.235C53.6853 21.6174 54.2629 21.1779 54.8625 21.1414C55.2962 21.115 55.7012 21.2794 55.9405 21.5741Z" fill="#241F3F"/>
<path d="M63.8036 57.4701C63.8967 57.4703 63.9896 57.4622 64.0812 57.4459C64.6154 57.3503 65.1235 56.8412 65.2892 56.2355C65.4268 55.7325 65.3013 55.2679 64.9448 54.9607C64.4053 54.4959 63.6276 54.3952 62.9153 54.6978C62.4126 54.9115 62.1748 55.4388 62.124 55.8253C62.0783 56.1726 62.1724 56.508 62.3959 56.7955C62.7213 57.2141 63.2713 57.4701 63.8036 57.4701ZM63.7435 54.8341C64.1093 54.83 64.4644 54.9579 64.7434 55.1945C65.103 55.5043 65.0532 55.9287 64.9916 56.154C64.8578 56.6429 64.4431 57.0677 64.0268 57.1422C63.5332 57.2305 62.9497 57.0051 62.6395 56.6061C62.5563 56.5033 62.4948 56.3846 62.4588 56.2573C62.4228 56.13 62.413 55.9968 62.4299 55.8656C62.4733 55.5354 62.6776 55.1342 63.036 54.9818C63.2595 54.8856 63.5001 54.8353 63.7435 54.8341Z" fill="#241F3F"/>
<path d="M34.1558 17.169C34.4181 17.169 34.6688 17.0849 34.8359 16.9328C35.2058 16.5961 35.2532 16.0655 35.136 15.6889C34.7917 14.5822 34.7749 13.5894 35.086 12.738C35.1088 12.6757 35.133 12.6126 35.1574 12.5491C35.3334 12.0903 35.5329 11.5704 35.2754 11.1072C35.0484 10.6989 34.4902 10.4641 33.918 10.5364C33.4357 10.5973 32.9643 10.8623 32.6247 11.2634C32.3625 11.573 32.1726 11.9567 32.0271 12.471C31.7993 13.2757 31.7635 14.0414 31.9206 14.747C32.092 15.5263 32.5174 16.2266 33.1301 16.738C33.3988 16.9596 33.6447 17.0883 33.9042 17.1429C33.9869 17.1603 34.0713 17.169 34.1558 17.169ZM34.1225 10.8322C34.506 10.8322 34.8617 10.998 35.0057 11.2572C35.1932 11.5943 35.0285 12.0235 34.8693 12.4385C34.8443 12.5037 34.8195 12.5683 34.7962 12.6321C34.4613 13.5485 34.4765 14.6078 34.8414 15.7806C34.9295 16.0637 34.8977 16.4593 34.6282 16.7046C34.4811 16.8384 34.2158 16.8932 33.9678 16.841C33.7589 16.797 33.5551 16.6886 33.3264 16.4999C32.7667 16.0324 32.3782 15.3922 32.2218 14.6799C32.0759 14.0249 32.1103 13.31 32.324 12.555C32.4571 12.0846 32.6275 11.7375 32.8602 11.4628C33.1505 11.12 33.5501 10.8939 33.9567 10.8426C34.0117 10.8357 34.067 10.8322 34.1225 10.8322Z" fill="#241F3F"/>
<path d="M26.4945 17.3446L27.5977 17.547L27.3678 17.1055H27.3675C27.0793 17.1757 26.7504 17.269 26.4945 17.3446Z" fill="#7938D6"/>
</g>
<defs>
<linearGradient id="paint0_linear_798_15164" x1="43.1469" y1="103.576" x2="63.2999" y2="45.3894" gradientUnits="userSpaceOnUse">
<stop stop-color="#A91A9F"/>
<stop offset="0.66104" stop-color="#4E1D5D"/>
<stop offset="1" stop-color="#241F3F"/>
</linearGradient>
<linearGradient id="paint1_linear_798_15164" x1="40.2164" y1="102.561" x2="60.3693" y2="44.3748" gradientUnits="userSpaceOnUse">
<stop stop-color="#A91A9F"/>
<stop offset="0.66104" stop-color="#4E1D5D"/>
<stop offset="1" stop-color="#241F3F"/>
</linearGradient>
<linearGradient id="paint2_linear_798_15164" x1="-11.7851" y1="84.5405" x2="8.36787" y2="26.3537" gradientUnits="userSpaceOnUse">
<stop stop-color="#A91A9F"/>
<stop offset="0.66104" stop-color="#4E1D5D"/>
<stop offset="1" stop-color="#241F3F"/>
</linearGradient>
<linearGradient id="paint3_linear_798_15164" x1="19.5292" y1="95.3866" x2="39.6821" y2="37.1997" gradientUnits="userSpaceOnUse">
<stop stop-color="#A91A9F"/>
<stop offset="0.66104" stop-color="#4E1D5D"/>
<stop offset="1" stop-color="#241F3F"/>
</linearGradient>
<linearGradient id="paint4_linear_798_15164" x1="33.1489" y1="53.7884" x2="26.1739" y2="76.8162" gradientUnits="userSpaceOnUse">
<stop stop-color="#B571FF"/>
<stop offset="1" stop-color="#751AEA"/>
</linearGradient>
<linearGradient id="paint5_linear_798_15164" x1="15.9724" y1="65.9102" x2="28.202" y2="50.0796" gradientUnits="userSpaceOnUse">
<stop stop-color="#FC8B72"/>
<stop offset="0.04685" stop-color="#FC8F77"/>
<stop offset="0.46457" stop-color="#FEB29F"/>
<stop offset="0.79677" stop-color="#FFC8B7"/>
<stop offset="1" stop-color="#FFD0C0"/>
</linearGradient>
<linearGradient id="paint6_linear_798_15164" x1="11.5153" y1="48.0127" x2="34.0939" y2="33.9195" gradientUnits="userSpaceOnUse">
<stop offset="0.16375" stop-color="#FC8B72"/>
<stop offset="0.9671" stop-color="#FFD5CF"/>
</linearGradient>
<clipPath id="clip0_798_15164">
<rect width="72" height="72" fill="white" transform="matrix(-1 0 0 1 72 0)"/>
</clipPath>
</defs>
</svg>
